<svg xmlns="http://www.w3.org/2000/svg" viewBox="0 0 1600 1200" width="1600" height="1200"><g transform="translate(170.0 128.0) rotate(0.0 629.0 367.5) scale(1.9702118995787068 1.9720955191843306)"><svg width="638.51" height="372.7" viewBox="0 0 638.51 372.7"><path d="M.5.5h198.53v371.7H.5z" fill="#fff"/><path d="M199.53 372.7H0V0h199.53zM1 371.7h197.53V1H1z" fill="#60657C"/><path d="M219.99.5h198.53v371.7H219.99z" fill="#fff"/><path d="M419.02 372.7H219.49V0h199.53zm-198.53-1h197.53V1H220.49z" fill="#60657C"/><path d="M439.48.5h198.53v371.7H439.48z" fill="#fff"/><path d="M638.51 372.7H438.98V0h199.53zm-198.53-1h197.53V1H439.98z" fill="#60657C"/><path d="m128.247 356.575-1.261 1.262-18.918-18.918 1.261-1.262z" fill="#fff"/><path d="M126.983 358.335a.502.502 0 0 1-.354-.146l-18.918-18.918a.5.5 0 0 1 0-.708l1.261-1.261a.5.5 0 0 1 .707 0l18.918 18.918a.5.5 0 0 1 0 .708l-1.261 1.261a.502.502 0 0 1-.353.146zm-18.212-19.418 18.211 18.211.554-.554-18.211-18.211z" fill="#60657C"/><path d="m127.16 357.839-1.26-1.262 18.917-18.918 1.261 1.262z" fill="#fff"/><path d="M127.162 358.335a.502.502 0 0 1-.354-.146l-1.261-1.261a.5.5 0 0 1 0-.708l18.918-18.918a.5.5 0 0 1 .707 0l1.261 1.261a.5.5 0 0 1 0 .707l-18.918 18.918a.495.495 0 0 1-.353.147zm-.554-1.761.554.554 18.211-18.211-.554-.554z" fill="#60657C"/><path d="M125.289 341.502h3.567v26.754h-3.567z" fill="#fff"/><path d="M128.856 368.757h-3.567a.5.5 0 0 1-.5-.5v-26.754a.5.5 0 0 1 .5-.5h3.567a.5.5 0 0 1 .5.5v26.754a.5.5 0 0 1-.5.5zm-3.067-1h2.567v-25.754h-2.567z" fill="#60657C"/><path d="M137.77 364.5v7.7h-5.35v-7.7c0-.88.72-1.59 1.6-1.59h2.16c.88 0 1.59.71 1.59 1.59z" fill="#fff"/><path d="M137.77 372.7h-5.35a.5.5 0 0 1-.5-.5v-7.7c0-1.152.942-2.09 2.1-2.09h2.16c1.152 0 2.09.938 2.09 2.09v7.7c0 .277-.223.5-.5.5zm-4.85-1h4.35v-7.2c0-.601-.489-1.09-1.09-1.09h-2.16c-.606 0-1.1.489-1.1 1.09z" fill="#60657C"/><path d="M121.72 364.5v7.7h-5.35v-7.7c0-.88.71-1.59 1.6-1.59h2.16c.88 0 1.59.71 1.59 1.59z" fill="#fff"/><path d="M121.72 372.7h-5.35a.5.5 0 0 1-.5-.5v-7.7c0-1.152.942-2.09 2.1-2.09h2.16c1.152 0 2.09.938 2.09 2.09v7.7a.5.5 0 0 1-.5.5zm-4.85-1h4.35v-7.2c0-.601-.489-1.09-1.09-1.09h-2.16c-.606 0-1.1.489-1.1 1.09z" fill="#60657C"/><path d="M132.42 367.37v4.83h-10.7v-4.83l3.57-1.19 1.78-.6 1.79.6z" fill="#fff"/><path d="M132.42 372.7h-10.7a.5.5 0 0 1-.5-.5v-4.83a.5.5 0 0 1 .342-.474l5.349-1.79a.495.495 0 0 1 .318 0l5.35 1.79a.5.5 0 0 1 .341.474v4.83a.5.5 0 0 1-.5.5zm-10.2-1h9.7v-3.97l-4.85-1.623-4.851 1.623v3.97z" fill="#60657C"/><path d="M199.03 343.5v-9.04" fill="#fff"/><path d="M199.03 344a.5.5 0 0 1-.5-.5v-9.04a.5.5 0 0 1 1 0v9.04a.5.5 0 0 1-.5.5z" fill="#60657C"/><path d="m199.03 331.94-.61-.61-6.86-6.86-8.21-8.22-1.27 1.26 7.48 7.48 8.86 8.86.61.61" fill="#fff"/><path d="M199.03 334.96a.502.502 0 0 1-.354-.146l-16.95-16.95a.497.497 0 0 1 .002-.708l1.27-1.26a.502.502 0 0 1 .706.001l15.679 15.69a.5.5 0 0 1-.707.707l-15.328-15.337-.56.555 16.595 16.595a.5.5 0 0 1-.353.853z" fill="#60657C"/><path d="M187.699 369.149h3.6a2.659 2.659 0 0 0 2.659-2.659v-21.436a2.659 2.659 0 0 0-2.659-2.659h-3.6a2.659 2.659 0 0 0-2.659 2.659v21.436a2.66 2.66 0 0 0 2.659 2.659z" fill="#fff"/><path d="M191.299 369.649h-3.6a3.163 3.163 0 0 1-3.16-3.16v-21.436a3.163 3.163 0 0 1 3.16-3.159h3.6a3.162 3.162 0 0 1 3.159 3.159v21.436a3.163 3.163 0 0 1-3.159 3.16zm-3.6-26.754c-1.191 0-2.16.969-2.16 2.159v21.436c0 1.191.969 2.16 2.16 2.16h3.6c1.19 0 2.159-.969 2.159-2.16v-21.436c0-1.19-.969-2.159-2.159-2.159z" fill="#60657C"/><path d="M199.03 346.85v12.48l-5.07 1.79v-12.63l4.62-1.64.45-.16" fill="#fff"/><path d="M193.96 361.62a.499.499 0 0 1-.5-.5v-12.63a.5.5 0 0 1 .333-.471l5.069-1.8a.5.5 0 0 1 .661.551.529.529 0 0 1 .006.08v12.48a.502.502 0 0 1-.333.472l-5.07 1.79a.499.499 0 0 1-.166.028zm.5-12.777v11.57l4.07-1.437v-11.578z" fill="#60657C"/><path d="M199.03 256.97v13.41l-2.46.45-6.13 1.11v-14.27l1.95-.16 2.32-.19z" fill="#fff"/><path d="M190.44 272.44a.501.501 0 0 1-.5-.5v-14.27c0-.26.2-.477.459-.499l8.59-.7a.497.497 0 0 1 .54.499v13.41a.5.5 0 0 1-.41.492l-8.591 1.561a.506.506 0 0 1-.088.007zm.5-14.309v13.21l7.59-1.378v-12.451z" fill="#60657C"/><path d="m310.82 250.12-90.83 16.46v-11.31l90.54-7.35c1.41-.12 1.68 1.95.29 2.2z" fill="#fff"/><path d="M219.99 267.08a.501.501 0 0 1-.5-.5v-11.31c0-.26.2-.477.459-.499l90.54-7.35c1.026-.085 1.67.695 1.739 1.466.077.862-.466 1.571-1.32 1.725l-90.829 16.46a.447.447 0 0 1-.089.008zm.5-11.349v10.251l90.241-16.354c.525-.094.51-.559.502-.651-.023-.259-.19-.562-.587-.562z" fill="#60657C"/><path d="m127.516 118.171 4.907 101.153h-12.485l4.907-101.153c.09-1.873 2.58-1.873 2.671 0z" fill="#fff"/><path d="M132.443 219.824h-12.505a.5.5 0 0 1-.5-.524l4.907-101.153c.12-2.469 3.55-2.471 3.671 0l4.9 101.014a.5.5 0 0 1-.473.663zm-11.98-1h11.436l-4.881-100.629c-.033-.686-.472-.93-.836-.93-.365 0-.803.244-.836.93z" fill="#60657C"/><path d="m510.94 270.47-71.46 3.27v8.28c8.65-1.17 17.1-2.29 25.22-3.37 1.58-.2 35.08-4.46 46.44-5.96 1.41-.18 1.22-2.28-.2-2.22zm-279.6 12.81h-.01l-11.34.52v33.56c2.15-.52 4.31-1.04 6.48-1.55h.01c13.97-3.31 28.03-6.42 40.69-8.82 3.49-.67 6.86-1.27 10.1-1.82.48-.08.94-.15 1.41-.23 3.38-.56 7.11-1.15 11.16-1.78 8.43-1.32 18.2-2.79 28.92-4.35 4.06-.6 8.25-1.21 12.56-1.82 26.55-3.83 57.36-8.09 87.2-12.14V274.7zm-32.31 36.41v-34.93l-3.28.15h-.01l-4.37.2c0 .01-.01 0-.01 0l-4.52.21c-.01 0-.02 0-.03.01l-1.68 2.08-.55.68-11.65 14.37-12.57 15.52-12.61 15.57-.25.31-.06.08c-.12.14-.24.28-.35.42l-.24.3-.21.25-.2.25-.02.02c-.08.11-.16.21-.24.3a.4.4 0 0 1-.1.12c-.31.39-.57.71-.75.93-.04.05-.08.09-.11.13l-.01.01-.08.1-.02.02-.07.09c-.02.02-.03.04-.04.05l-.01.01c-.02.03 0 .08.04.07 1.12-.32 9.69-2.75 22.41-6.18h.01c2.75-.74 5.7-1.53 8.81-2.36 4.17-1.1 8.63-2.27 13.3-3.48.66-.18 1.33-.35 2-.52 2.25-.58 4.53-1.17 6.86-1.76l.61-.15v-2.46z" fill="#fff"/><path d="M145.02 337.512a.575.575 0 0 1-.473-.283.6.6 0 0 1 .025-.564.468.468 0 0 1 .073-.087l.174-.22.186.14.068-.02-.173-.214c.221-.269.48-.586.788-.975a.5.5 0 0 1 .09-.088c.097-.131.167-.219.237-.315a.854.854 0 0 1 .069-.078l.614-.76c.113-.142.236-.288.361-.433l.301-.378 39.06-48.22a.57.57 0 0 1 .419-.196l4.497-.209h.021l7.649-.349a.497.497 0 0 1 .523.499v37.8a.5.5 0 0 1-.379.485l-.61.15c-1.996.506-3.958 1.012-5.895 1.511l-.96.248c-.676.171-1.34.339-1.993.518a3044.948 3044.948 0 0 0-13.305 3.481c-3.108.83-6.058 1.619-8.807 2.359l-.05.011c-13.589 3.665-22.278 6.143-22.363 6.167a.599.599 0 0 1-.147.02zm1.422-1.563-.146.183a1949.4 1949.4 0 0 1 21.014-5.785.928.928 0 0 1 .051-.011c2.739-.737 5.675-1.523 8.771-2.349 4.172-1.101 8.633-2.271 13.304-3.481.653-.179 1.323-.349 1.993-.518l.969-.25c1.938-.5 3.901-1.006 5.901-1.513l.232-.057v-36.884l-7.074.323a.499.499 0 0 1-.134.006l-4.259.198-39.223 48.43c-.136.161-.251.295-.358.43l-.652.803a6.06 6.06 0 0 1-.276.339c.008-.001-.036.065-.113.136zm73.548-18.089a.5.5 0 0 1-.5-.5V283.8c0-.267.21-.487.477-.5l198.531-9.1a.503.503 0 0 1 .522.499v10.15c0 .25-.185.462-.433.496-34.13 4.632-63.467 8.716-87.196 12.14-4.31.61-8.499 1.219-12.558 1.819a2741.11 2741.11 0 0 0-28.916 4.35c-4.048.629-7.777 1.219-11.155 1.779l-1.409.23a472.807 472.807 0 0 0-10.088 1.818c-11.496 2.179-25.178 5.145-40.669 8.815l-.048.009a1000.02 1000.02 0 0 0-6.439 1.54.497.497 0 0 1-.119.015zm.5-33.582v32.447c1.947-.47 3.902-.94 5.866-1.401a.738.738 0 0 1 .046-.008c15.49-3.67 29.175-6.636 40.675-8.816 3.178-.61 6.485-1.207 10.11-1.822l1.41-.229c3.384-.561 7.115-1.151 11.167-1.781 8.46-1.325 18.192-2.789 28.925-4.351 4.06-.6 8.251-1.21 12.562-1.82 23.631-3.409 52.822-7.474 86.771-12.082v-9.19zm218.99-1.758a.497.497 0 0 1-.5-.5v-8.28c0-.267.21-.487.478-.5l71.46-3.27h.003c1.069 0 1.634.765 1.682 1.521.048.748-.417 1.569-1.398 1.695-11.32 1.495-44.448 5.708-46.441 5.96l-3.484.463a9590.94 9590.94 0 0 0-21.73 2.906.427.427 0 0 1-.07.005zm.5-8.302v7.23c7.222-.976 14.303-1.917 21.166-2.83l3.487-.464c1.996-.252 35.121-4.465 46.441-5.96.539-.069.536-.545.529-.64-.017-.27-.186-.586-.604-.586z" fill="#60657C"/><path d="m70.867 316.25 1.261 1.261L53.21 336.43l-1.261-1.262z" fill="#fff"/><path d="M53.209 336.932a.504.504 0 0 1-.354-.146l-1.261-1.261a.5.5 0 0 1 0-.707L70.512 315.9a.514.514 0 0 1 .707 0l1.261 1.261a.5.5 0 0 1 0 .707l-18.918 18.918a.503.503 0 0 1-.353.146zm-.555-1.762.554.554 18.211-18.211-.554-.554z" fill="#60657C"/><path d="M50.443 320.099h5.351v26.754h-5.351z" fill="#fff"/><path d="M55.794 347.354h-5.351a.5.5 0 0 1-.5-.5V320.1a.5.5 0 0 1 .5-.5h5.351a.5.5 0 0 1 .5.5v26.754a.5.5 0 0 1-.5.5zm-4.851-1h4.351V320.6h-4.351z" fill="#60657C"/><path d="M43.325 369.149h-3.599a2.659 2.659 0 0 1-2.659-2.659v-21.436a2.659 2.659 0 0 1 2.659-2.659h3.599a2.659 2.659 0 0 1 2.659 2.659v21.436a2.659 2.659 0 0 1-2.659 2.659z" fill="#fff"/><path d="M43.325 369.649h-3.599a3.163 3.163 0 0 1-3.16-3.16v-21.436a3.163 3.163 0 0 1 3.16-3.159h3.599a3.163 3.163 0 0 1 3.16 3.159v21.436a3.164 3.164 0 0 1-3.16 3.16zm-3.599-26.754c-1.191 0-2.16.969-2.16 2.159v21.436c0 1.191.969 2.16 2.16 2.16h3.599c1.191 0 2.16-.969 2.16-2.16v-21.436c0-1.19-.969-2.159-2.16-2.159z" fill="#60657C"/><path d="M66.512 369.149h-3.599a2.659 2.659 0 0 1-2.659-2.659v-21.436a2.659 2.659 0 0 1 2.659-2.659h3.599a2.659 2.659 0 0 1 2.659 2.659v21.436a2.659 2.659 0 0 1-2.659 2.659z" fill="#fff"/><path d="M66.512 369.649h-3.6a3.163 3.163 0 0 1-3.159-3.16v-21.436a3.162 3.162 0 0 1 3.159-3.159h3.6a3.162 3.162 0 0 1 3.159 3.159v21.436a3.162 3.162 0 0 1-3.159 3.16zm-3.599-26.754c-1.19 0-2.159.969-2.159 2.159v21.436c0 1.191.969 2.16 2.159 2.16h3.6c1.19 0 2.159-.969 2.159-2.16v-21.436c0-1.19-.969-2.159-2.159-2.159z" fill="#60657C"/><path d="m60.253 348.488-7.134-2.526-7.135 2.526v12.634l7.135-2.526 7.134 2.526z" fill="#fff"/><path d="M60.254 361.623a.481.481 0 0 1-.167-.029l-6.968-2.468-6.967 2.468a.498.498 0 0 1-.667-.471v-12.634a.5.5 0 0 1 .333-.471l7.134-2.527a.504.504 0 0 1 .334 0l7.135 2.527a.5.5 0 0 1 .333.471v12.634a.5.5 0 0 1-.5.5zm-7.135-3.527c.057 0 .113.01.167.029l6.468 2.291v-11.573l-6.635-2.35-6.634 2.35v11.573l6.467-2.291a.477.477 0 0 1 .167-.029z" fill="#60657C"/><path d="M273.767 320.074c29.468 1.188 46.122-.093 66.803 0 0 18.447-14.954 33.402-33.402 33.402s-33.401-14.955-33.401-33.402z" fill="#fff"/><path d="M307.169 353.976c-18.693 0-33.902-15.208-33.902-33.902a.503.503 0 0 1 .52-.5 612.21 612.21 0 0 0 24.925.508c7.613 0 14.426-.136 21.015-.268 6.31-.126 12.271-.245 18.654-.245l2.191.005a.5.5 0 0 1 .498.5c0 18.694-15.208 33.902-33.901 33.902zm-32.898-33.381c.279 17.903 14.93 32.381 32.898 32.381 17.976 0 32.631-14.489 32.897-32.403l-1.686-.004c-6.373 0-12.328.119-18.634.245-6.594.132-13.412.268-21.035.268a611.363 611.363 0 0 1-24.44-.487z" fill="#60657C"/><path d="M273.767 320.074c0-18.447 14.954-33.402 33.402-33.402s33.402 14.954 33.402 33.402c0 5.01-14.954 8.35-33.402 8.35s-33.402-3.339-33.402-8.35z" fill="#fff"/><path d="M307.169 328.925c-16.328 0-33.902-2.77-33.902-8.851 0-18.693 15.208-33.901 33.902-33.901s33.901 15.208 33.901 33.901c0 6.081-17.573 8.851-33.901 8.851zm0-41.752c-18.142 0-32.902 14.759-32.902 32.901 0 4.402 14.452 7.851 32.902 7.851 18.449 0 32.901-3.448 32.901-7.851 0-18.142-14.76-32.901-32.901-32.901z" fill="#60657C"/><circle cx="307.168" cy="320.074" fill="#fff" r="24.216"/><path d="M307.169 344.791c-13.628 0-24.716-11.088-24.716-24.716s11.088-24.716 24.716-24.716 24.716 11.088 24.716 24.716-11.088 24.716-24.716 24.716zm0-48.433c-13.077 0-23.716 10.639-23.716 23.716s10.639 23.716 23.716 23.716 23.716-10.639 23.716-23.716-10.639-23.716-23.716-23.716z" fill="#60657C"/><circle cx="307.168" cy="320.074" fill="#fff" r="5.845"/><path d="M307.169 326.419c-3.499 0-6.345-2.847-6.345-6.345s2.847-6.345 6.345-6.345 6.345 2.847 6.345 6.345-2.847 6.345-6.345 6.345zm0-11.69c-2.947 0-5.345 2.398-5.345 5.345s2.398 5.345 5.345 5.345 5.345-2.398 5.345-5.345-2.398-5.345-5.345-5.345z" fill="#60657C"/><path d="M62.83 257.67v14.27l-7.03-1.27L.5 260.64v-8.03l57.17 4.64z" fill="#fff"/><path d="M62.83 272.44a.447.447 0 0 1-.089-.008L.41 261.132a.5.5 0 0 1-.41-.492v-8.03a.503.503 0 0 1 .54-.499l62.33 5.06a.5.5 0 0 1 .459.499v14.27a.503.503 0 0 1-.499.5zM1 260.223l61.33 11.119v-13.21L1 253.152z" fill="#60657C"/><path d="M.5 300.64V282.3l56.1 2.57 4.39.2 5.44.25c.01 0 .02 0 .03.01l1.87 2.3v.01l37.43 46.21.56.69.27.33" fill="#fff"/><path d="M106.59 335.37a.5.5 0 0 1-.388-.184l-.831-1.021-37.43-46.21a.48.48 0 0 1-.045-.066l-1.691-2.08L1 282.823v17.817a.5.5 0 0 1-1 0V282.3a.497.497 0 0 1 .523-.499l65.93 3.02a.59.59 0 0 1 .361.156l1.904 2.338a.38.38 0 0 1 .046.067l38.213 47.172a.5.5 0 0 1-.387.816z" fill="#60657C"/><path d="M.5 305.23c22.62 4.57 47.06 10.33 66.31 15.08.68.17 1.35.33 2.02.5 2.23.55 4.37 1.09 6.43 1.6h.01c15.07 3.78 25.49 6.56 26.79 6.93l.78.94 1.48 1.81.57.7.87 1.06.56.69.27.33.5.61 1.19 1.46c.02.03 0 .08-.04.07-1.17-.33-10.33-2.93-23.84-6.56" fill="#fff"/><path d="M108.233 337.508a.452.452 0 0 1-.117-.014l-.333-.094a1965.64 1965.64 0 0 0-23.513-6.467.5.5 0 1 1 .26-.966c5.54 1.489 13.841 3.743 22.449 6.167l-5.204-6.355c-1.789-.498-11.943-3.201-26.592-6.875a.473.473 0 0 1-.043-.008l-2.744-.684c-1.201-.3-2.429-.606-3.686-.917l-2.021-.5C49.523 316.56 24.086 310.505.401 305.72a.5.5 0 1 1 .198-.98c23.703 4.789 49.154 10.846 66.331 15.085l2.023.5c1.254.31 2.483.616 3.685.917l2.708.675a.299.299 0 0 1 .045.009c15.158 3.802 25.524 6.569 26.805 6.934a.5.5 0 0 1 .248.162l6.223 7.604a.588.588 0 0 1 .019.662.579.579 0 0 1-.453.22z" fill="#60657C"/><path d="M.5 300.64c25.57 3.38 48.58 6.85 65.78 10.19 11.71 2.27 20.73 4.49 26.03 6.59l9.75 11.92.78.94 1.48 1.81.57.7.87 1.06.56.69.27.33.5.61 1.19 1.46c.02.03 0 .08-.04.07-.44-.12-2.02-.57-4.55-1.28-.36-.1-.74-.21-1.14-.32l-.13-.03c-.46-.13-.96-.27-1.47-.41-.77-.21-1.6-.44-2.48-.69-.51-.14-1.03-.28-1.57-.43-1.44-.4-3-.83-4.66-1.28-.51-.14-1.03-.28-1.57-.42-.32-.09-.64-.18-.97-.27-.01 0-.02-.01-.03-.01-1.67-.45-3.43-.92-5.27-1.42h-.02c-5.91-1.6-12.66-3.38-19.92-5.27-.67-.17-1.33-.34-2-.52-2.18-.56-4.41-1.14-6.67-1.71-1.76-.45-3.55-.9-5.35-1.36-16.11-4.06-33.65-8.26-49.94-11.71" fill="#fff"/><path d="M108.233 337.508a.452.452 0 0 1-.117-.014c-.235-.064-.766-.214-1.575-.442l-4.123-1.16-.133-.031c-.459-.129-.958-.269-1.466-.408-.771-.211-1.603-.441-2.485-.692l-1.567-.429c-1.439-.4-2.998-.83-4.657-1.28a120.82 120.82 0 0 0-1.564-.418l-.977-.272-.041-.012-1.759-.473c-1.117-.3-2.27-.61-3.456-.932a.472.472 0 0 1-.063-.012 2184.77 2184.77 0 0 0-19.915-5.269 155.63 155.63 0 0 1-2.003-.521l-1.877-.483c-1.575-.406-3.173-.818-4.786-1.225l-5.352-1.361c-18.678-4.708-35.474-8.646-49.919-11.705a.5.5 0 0 1 .207-.979c14.458 3.062 31.266 7.003 49.958 11.714l5.352 1.361c1.613.407 3.212.819 4.79 1.226l1.881.484c.673.181 1.331.35 1.999.52a2162.283 2162.283 0 0 1 19.885 5.26.472.472 0 0 1 .063.012c1.2.326 2.367.64 3.497.943l1.772.477.044.013.961.268c.533.138 1.055.279 1.567.419 1.66.45 3.221.881 4.662 1.281l1.568.429c.883.251 1.711.48 2.479.69.512.14 1.013.281 1.474.411l-.006.511.132-.482 4.13 1.162.169.047-14.976-18.3c-5.051-1.982-13.737-4.174-25.821-6.517-15.984-3.104-38.105-6.531-65.75-10.185a.5.5 0 0 1 .131-.991c27.665 3.657 49.806 7.087 65.81 10.195 12.241 2.373 21.029 4.599 26.119 6.616a.506.506 0 0 1 .203.148l15.97 19.521a.588.588 0 0 1 .019.662.576.576 0 0 1-.454.223z" fill="#60657C"/><path d="M55.727 273.725c0-38.91 31.543-70.453 70.453-70.453s70.453 31.543 70.453 70.453c0 3.021-.19 5.997-.559 8.918-24.154 15.56-115.754 14.919-139.782.048a71.124 71.124 0 0 1-.565-8.966z" fill="#fff"/><path d="M126.981 294.58c-31.85 0-59.7-4.5-70.952-11.464a.501.501 0 0 1-.233-.362 72.084 72.084 0 0 1-.569-9.028c0-39.124 31.83-70.954 70.953-70.954s70.953 31.83 70.953 70.954c0 3.003-.189 6.024-.563 8.98a.502.502 0 0 1-.225.358c-13.181 8.49-44.473 11.516-69.364 11.516zm-70.223-12.19c11.236 6.802 38.737 11.19 70.223 11.19 31.388 0 57.633-4.3 68.626-11.232.349-2.84.526-5.739.526-8.622 0-38.573-31.381-69.954-69.953-69.954s-69.953 31.381-69.953 69.954c0 2.893.179 5.806.531 8.664z" fill="#60657C"/><path d="M126.9 252.179c4.744-.929 31.695-6.101 43.871-6.101l8.918 19.62-6.243 6.243s-3.567-4.459-16.944-4.459-30.322 3.567-30.322 3.567v-17.995c0-.426.302-.793.72-.875z" fill="#fff"/><path d="m173.446 272.441-.028-.001a.5.5 0 0 1-.361-.185c-.049-.06-3.682-4.274-16.556-4.274-13.173 0-30.05 3.521-30.219 3.557a.498.498 0 0 1-.603-.489v-17.995c0-.664.473-1.238 1.124-1.366 5.208-1.02 31.808-6.11 43.967-6.11a.5.5 0 0 1 .455.293l8.918 19.62a.5.5 0 0 1-.102.561l-6.243 6.243a.491.491 0 0 1-.352.146zm-16.944-5.459c11.26 0 15.705 3.119 16.947 4.25l5.642-5.642-8.641-19.011c-12.21.088-38.306 5.082-43.453 6.09a.391.391 0 0 0-.316.384v17.383c3.145-.627 17.961-3.454 29.821-3.454z" fill="#60657C"/><path d="M125.46 252.179c-4.744-.929-31.695-6.101-43.871-6.101l-8.918 19.62 6.243 6.243s3.567-4.459 16.944-4.459 30.322 3.567 30.322 3.567v-17.995a.891.891 0 0 0-.72-.875z" fill="#fff"/><path d="M78.914 272.441a.501.501 0 0 1-.354-.146l-6.243-6.243a.502.502 0 0 1-.102-.561l8.918-19.62a.5.5 0 0 1 .455-.293c12.159 0 38.758 5.09 43.967 6.11a1.394 1.394 0 0 1 1.124 1.366v17.995a.5.5 0 0 1-.603.489c-.169-.036-17.048-3.557-30.219-3.557-12.986 0-16.52 4.229-16.554 4.272a.502.502 0 0 1-.363.187l-.026.001zm-5.644-6.851 5.642 5.642c1.242-1.131 5.687-4.25 16.947-4.25 11.86 0 26.676 2.827 29.822 3.456v-17.383a.391.391 0 0 0-.316-.384c-5.147-1.008-31.243-6.002-43.453-6.09z" fill="#60657C"/><path d="m180.86 265.17-8.92-19.62c-.21-.46-.67-.75-1.17-.75-11.39 0-35.32 4.43-42.76 5.86H128c-.54.1-.99.19-1.35.26-.16.04-.32.09-.47.16-.15-.07-.31-.12-.47-.16a585.66 585.66 0 0 0-19.44-3.44c-7.03-1.12-14.6-2.15-20.48-2.53h-.01c-1.53-.1-2.93-.15-4.19-.15-.5 0-.96.29-1.17.75l-6.87 15.14-2.04 4.48c-.23.48-.12 1.06.26 1.43l6.24 6.25c.24.24.57.37.9.37h.07c.37-.02.71-.19.93-.48.02-.01 1.77-1.98 7.14-3.14 2.25-.49 5.14-.84 8.81-.84 13.09 0 29.89 3.51 30.06 3.54.03.01.07.01.11.01.05.01.1.02.15.02s.1-.01.14-.02c.04 0 .08 0 .12-.01.02 0 .23-.04.6-.12h.01c3.03-.6 16.86-3.25 28.33-3.41.38-.01.75-.01 1.12-.01 12.42 0 15.91 3.94 15.95 3.98.22.29.56.46.93.48h.07c.34 0 .66-.13.9-.37l6.24-6.25c.38-.37.49-.95.27-1.43zm-6.92 4.46-8.36-22.04c1.58-.12 3.05-.2 4.37-.22l8.21 18.05zm-17.44-3.43c-1.17 0-2.38.03-3.6.08l-3.63-16.71c4.67-.71 9.43-1.35 13.66-1.75l7.92 20.89c-2.71-1.25-7.21-2.51-14.35-2.51zm-6.19.22c-9.44.61-19.16 2.36-22.85 3.07v-16.12c.83-.16 2.07-.4 3.61-.69 3.84-.71 9.55-1.75 15.66-2.71l3.32 15.27zm-25.41 3.07c-.7-.14-1.61-.31-2.7-.51h-.01c-4.66-.82-12.5-2.07-20.14-2.56l2.04-9.38v-.01l1.54-7.06c8.56 1.35 16.36 2.84 19.27 3.4zm-50.69-4.07 1.5-3.3 6.7-14.75c1.32.02 2.79.1 4.37.22l-6.62 17.46-1.74 4.58zm7.3 3.29.84-2.21 7.09-18.68c.27.03.54.05.81.08 4.02.4 8.48 1.01 12.84 1.67l-1.29 5.95-2.34 10.76c-1.22-.05-2.42-.08-3.6-.08-5.17 0-8.96.66-11.68 1.5-1.04.32-1.92.67-2.67 1.01z" fill="#fff" stroke="#60657C" stroke-linecap="round" stroke-linejoin="round" stroke-miterlimit="10"/><path d="M126.18 287.102c38.91 0 69.894-4.459 69.894-4.459-4.383 34.7-34.005 61.535-69.894 61.535-35.873 0-65.484-26.811-69.888-61.487 0 0 30.978 4.411 69.888 4.411z" fill="#fff"/><path d="M126.18 344.678c-35.642 0-65.9-26.622-70.384-61.925a.498.498 0 0 1 .566-.558c.31.044 31.392 4.407 69.818 4.407 38.425 0 69.513-4.41 69.823-4.455a.503.503 0 0 1 .568.558c-4.463 35.331-34.724 61.973-70.391 61.973zm-69.307-61.404c4.707 34.481 34.386 60.404 69.307 60.404 34.945 0 64.627-25.943 69.313-60.451-4.679.632-33.886 4.375-69.313 4.375s-64.628-3.702-69.307-4.328z" fill="#60657C"/><path d="M100.318 304.938c0-14.283 11.579-25.863 25.863-25.863s25.863 11.579 25.863 25.863-11.579 25.863-25.863 25.863c-12.385 0-22.737-8.706-25.27-20.331a25.923 25.923 0 0 1-.593-5.532z" fill="#fff"/><path d="M126.18 331.301c-12.309 0-23.142-8.716-25.758-20.725a26.487 26.487 0 0 1-.604-5.637c0-14.537 11.826-26.363 26.362-26.363 14.537 0 26.363 11.826 26.363 26.363 0 14.536-11.826 26.362-26.363 26.362zm0-51.725c-13.985 0-25.362 11.378-25.362 25.363 0 1.831.196 3.656.581 5.424 2.517 11.553 12.939 19.938 24.781 19.938 13.985 0 25.363-11.377 25.363-25.362s-11.378-25.363-25.363-25.363z" fill="#60657C"/><path d="m353.821 81.449-4.994 6.793a3.287 3.287 0 0 1-1.175.99l-6.258 3.124-3.699-2.499-1.934-2.129s4.415 1.814 8.185-.634c2.508-1.629 4.956-3.741 6.313-4.972a3.22 3.22 0 0 1 2.609-.805z" fill="#fff"/><path d="M341.394 92.855a.508.508 0 0 1-.28-.085l-3.699-2.499a.554.554 0 0 1-.09-.078l-1.934-2.128a.5.5 0 0 1 .56-.799c.015.006 1.517.609 3.455.609 1.605 0 3.041-.404 4.268-1.2 2.513-1.631 4.994-3.785 6.25-4.923a3.714 3.714 0 0 1 3.014-.929l.953.133a.502.502 0 0 1 .334.792l-4.994 6.792c-.354.48-.822.875-1.354 1.141l-6.258 3.124a.558.558 0 0 1-.225.05zm-3.369-3.38 3.407 2.302 5.996-2.993c.392-.195.736-.485.995-.839l4.498-6.117-.123-.017a2.723 2.723 0 0 0-2.203.68c-1.278 1.159-3.807 3.352-6.377 5.021-1.392.903-3.011 1.361-4.813 1.361-.793 0-1.515-.089-2.113-.204z" fill="#60657C"/><path d="m385.599 100.011 10.388-19.975-4.891-.683a3.934 3.934 0 0 0-2.883.735l-16.852 12.501a9.811 9.811 0 0 1-8.25 1.635 1538.502 1538.502 0 0 1-31.414-8.289c-25.16-6.941-54.439-15.005-59.079-10.668l-2.238 1.436s-5.276.214-5.593 2.483.041 6.119 35.645 13.841l-.618 4.43s1.532 2.444 10.742 2.16l.292-.909 5.845.444.452-1.465 1.847.382s-.038.862.75 1.137 1.384.441 1.384.441l.186 2.217 1.194.908.498-3.566 1.448.285.098 1.666.77.107.58-1.489s21.169 4.425 33.842 5.549c19.038 1.687 32.722-.042 32.722-.042l.364-2.61-1.801-.493 1.966-.693c.001.002-2.23-1.562-7.394-1.475z" fill="#fff"/><path d="M376.449 106.564c-5.566 0-11.202-.25-16.751-.741-11.581-1.026-30.453-4.849-33.484-5.472l-.427 1.096a.489.489 0 0 1-.535.313l-.77-.107a.5.5 0 0 1-.43-.466l-.075-1.279-.551-.108-.424 3.042a.501.501 0 0 1-.798.33l-1.194-.908a.497.497 0 0 1-.195-.356l-.158-1.876a27.188 27.188 0 0 1-1.079-.352c-.651-.228-.938-.756-1.04-1.193l-1.049-.217-.318 1.031a.497.497 0 0 1-.516.351l-5.452-.414-.171.534a.5.5 0 0 1-.46.347c-9.275.294-11.017-2.132-11.181-2.394a.5.5 0 0 1-.072-.335l.554-3.97c-36.471-7.944-35.913-11.921-35.581-14.301.343-2.462 4.93-2.851 5.93-2.906l2.126-1.364c.906-.858 2.765-1.302 5.612-1.302 10.707 0 33.638 6.326 53.87 11.908a1549.833 1549.833 0 0 0 31.402 8.287 9.359 9.359 0 0 0 7.831-1.552l16.852-12.5a4.447 4.447 0 0 1 3.25-.829l4.891.683a.5.5 0 0 1 .374.725l-10.008 19.245c4.683.08 6.77 1.505 6.858 1.568a.5.5 0 0 1-.121.881l-.458.162.258.07a.5.5 0 0 1 .363.552l-.364 2.609a.5.5 0 0 1-.433.427c-.061.004-6.324.781-16.076.781zm-50.548-7.288c.033 0 .068.003.103.011.211.044 21.284 4.433 33.782 5.54 5.52.489 11.126.737 16.663.737 8.33 0 14.087-.569 15.573-.733l.25-1.791-1.377-.377a.5.5 0 0 1-.034-.954l.839-.295c-1.034-.401-2.893-.906-5.688-.906l-.403.003c-.174-.009-.341-.087-.434-.237s-.1-.337-.019-.494l10.061-19.347-4.189-.585a3.45 3.45 0 0 0-2.516.642L371.66 92.991c-2.451 1.817-5.716 2.465-8.671 1.719a1552.886 1552.886 0 0 1-31.424-8.292c-20.17-5.565-43.032-11.872-53.604-11.872-2.546 0-4.229.366-5.001 1.088l-2.31 1.492a.505.505 0 0 1-.25.079c-1.261.052-4.907.541-5.118 2.052-.229 1.638-.764 5.472 35.255 13.284a.5.5 0 0 1 .389.558l-.586 4.204c.46.433 2.649 1.995 9.847 1.827l.184-.572a.49.49 0 0 1 .514-.346l5.447.414.334-1.084a.499.499 0 0 1 .579-.342l1.847.381a.5.5 0 0 1 .398.512c-.001.045.003.5.416.644.766.268 1.347.43 1.354.432a.498.498 0 0 1 .363.439l.168 1.996.338.257.379-2.72a.498.498 0 0 1 .592-.421l1.449.285a.499.499 0 0 1 .402.461l.07 1.191.412-1.059a.504.504 0 0 1 .468-.322z" fill="#60657C"/><circle cx="324.791" cy="102.596" fill="#fff" r="2.018"/><path d="M324.795 105.114a2.498 2.498 0 0 1-2.014-1.001 2.507 2.507 0 0 1-.483-1.866 2.528 2.528 0 0 1 2.842-2.146 2.498 2.498 0 0 1 1.662.977c.404.537.576 1.199.483 1.866a2.525 2.525 0 0 1-2.49 2.17zm-.007-4.036c-.751 0-1.396.562-1.5 1.308a1.51 1.51 0 0 0 .292 1.125c.244.324.6.533 1.002.589.832.113 1.6-.478 1.713-1.293a1.51 1.51 0 0 0-.292-1.125 1.506 1.506 0 0 0-1.215-.604z" fill="#60657C"/><circle cx="279.084" cy="92.335" fill="#fff" r="1.105"/><path d="M279.086 93.939a1.608 1.608 0 0 1-1.591-1.827 1.609 1.609 0 0 1 1.812-1.368c.424.059.8.28 1.059.623.258.342.368.764.308 1.188a1.61 1.61 0 0 1-1.588 1.384zm.067-2.203c-.376 0-.627.222-.668.516a.606.606 0 0 0 .516.682l.085.006a.606.606 0 0 0 .082-1.203l-.015-.001z" fill="#60657C"/><path d="m278.898 91.916.645.09 2.336-4.899-.645-.09z" fill="#fff"/><path d="M279.543 92.506a.4.4 0 0 1-.069-.005l-.645-.09a.502.502 0 0 1-.383-.71l2.336-4.899a.504.504 0 0 1 .52-.28l.645.09a.502.502 0 0 1 .383.71l-2.336 4.899a.498.498 0 0 1-.451.285z" fill="#60657C"/><path d="m279.3 89.795-.261.564 1.551.744.277-.555z" fill="#fff"/><path d="M280.589 91.603a.507.507 0 0 1-.216-.049l-1.551-.744a.5.5 0 0 1-.237-.661l.261-.563a.501.501 0 0 1 .67-.241l1.567.752a.502.502 0 0 1 .231.675l-.277.555a.501.501 0 0 1-.448.276z" fill="#60657C"/><path d="m279.891 89.834.645.09-.926-3.134-.645-.09z" fill="#fff"/><path d="M280.536 90.424a.4.4 0 0 1-.069-.005l-.645-.09a.501.501 0 0 1-.41-.354l-.926-3.134a.5.5 0 0 1 .549-.637l.645.09a.5.5 0 0 1 .411.354l.926 3.134a.5.5 0 0 1-.481.642z" fill="#60657C"/><circle cx="321.7" cy="103.431" fill="#fff" r="2.018"/><path d="M321.704 105.95a2.52 2.52 0 0 1-2.498-2.866 2.53 2.53 0 0 1 2.842-2.146 2.52 2.52 0 0 1 2.146 2.842 2.526 2.526 0 0 1-2.49 2.17zm-.007-4.037a1.52 1.52 0 0 0-.206 3.022 1.53 1.53 0 0 0 1.714-1.294 1.52 1.52 0 0 0-1.508-1.728z" fill="#60657C"/><path d="M199.03 261.91v35.74l-5.652-3.57-9.073-5.99-.531-.35-4.828-3.19-23.886-15.78-1.863-1.23-3.475-2.3-19.009-12.56-1.532-1.01-1.533-1.01h-.01L80.627 219.6.645 166.76v-35.74l111.4 73.59 7.982 5.27 11.968 7.91 60.132 39.72 2.774 1.84z" fill="#fff"/><path d="M199.03 298.15a.502.502 0 0 1-.267-.077l-5.651-3.57-65.687-43.391a.426.426 0 0 1-.062-.035L.37 167.177a.5.5 0 0 1-.225-.417v-35.74a.5.5 0 0 1 .775-.417l194.256 128.331 4.117 2.552a.5.5 0 0 1 .236.425v35.74a.5.5 0 0 1-.499.499zm-71.168-47.941c.021.01.042.021.061.034l65.73 43.42 4.876 3.08v-34.554l-3.893-2.414-2.787-1.848L1.145 131.95v34.542z" fill="#60657C"/><path d="M365.511 372.2h-54.103l-84.999-56.39h-.01l-6.409-4.3v-35.74l11.277 7.51h.01l35.884 23.71 7.592 5.02 8.342 5.51 4.487 2.96 11.688 7.72 19.74 13.04 8.343 5.51z" fill="#fff"/><path d="M365.53 372.7h-54.122a.502.502 0 0 1-.276-.083l-84.947-56.355c-.022-.011-.044-.022-.064-.036l-6.409-4.3a.501.501 0 0 1-.221-.415v-35.74a.5.5 0 0 1 .777-.416l11.226 7.476c.021.01.041.021.059.033l96.076 63.47 38.086 25.402a.499.499 0 0 1-.185.964zm-53.971-1h52.301l-36.785-24.534-96.023-63.435a.426.426 0 0 1-.062-.035l-10.5-6.993v34.54l6.136 4.116c.021.01.041.021.06.034z" fill="#60657C"/><path d="M199.03 320.1v23.4l-.864-.4-22.194-14.63-3.235-2.13-12.689-8.36-9.274-6.11-27.011-17.8-10.817-7.13-3.315-2.19h-.01L86.626 269.6l-1.472-.98h-.01l-1.392-.92-1.833-1.2-2.193-1.45-4.457-2.93-1.082-.72-1.082-.71-14.201-9.36L.645 212.94v-23.81l67.263 44.32 17.446 11.5h.01l2.193 1.45 2.274 1.5 11.567 7.62 2.294 1.51v.01l18.128 11.94h.01l2.744 1.82.01.01h.01l2.083 1.37h.01l21.893 14.43 8.984 5.92 15.073 9.93 13.03 8.59 13.11 8.64z" fill="#fff"/><path d="M199.03 344a.5.5 0 0 1-.21-.046l-.864-.4-88.549-58.353a.49.49 0 0 1-.06-.033L84.93 269.071a.453.453 0 0 1-.061-.034l-26.239-17.29-58.26-38.39a.499.499 0 0 1-.225-.417v-23.81a.5.5 0 0 1 .775-.417L85.579 244.5c.021.01.042.021.061.034l18.327 12.08a.648.648 0 0 1 .071.056l18.005 11.859c.022.01.043.022.063.035l2.72 1.804a.786.786 0 0 1 .042.024l2.032 1.337c.021.01.042.021.061.034l72.089 47.51c.061.04.112.093.15.155l.253.41c.049.079.075.17.075.263v23.4a.499.499 0 0 1-.498.499zm-89.185-59.701c.021.01.042.021.061.034l88.624 58.39v-22.481l-.121-.195-71.947-47.416a.592.592 0 0 1-.061-.033l-2.038-1.341a.48.48 0 0 1-.134-.093l-2.625-1.732a.536.536 0 0 1-.062-.034l-18.127-11.94a.648.648 0 0 1-.071-.056l-18.207-12.001a.592.592 0 0 1-.061-.033l-83.934-55.31v22.612l84.223 55.499c.022.01.043.022.063.035l1.472.98z" fill="#60657C"/><path d="M278.097 372.2h-36.135l-21.972-14.86v-23.82z" fill="#fff"/><path d="M278.117 372.7h-36.155a.5.5 0 0 1-.28-.086l-21.973-14.86a.501.501 0 0 1-.22-.414v-23.82a.5.5 0 0 1 .777-.416l58.034 38.631a.5.5 0 0 1-.183.965zm-36.001-1h34.328l-55.954-37.247v22.621z" fill="#60657C"/><path d="m391.1.5 27.42 18.16v59.58l-116.1-76.9.56-.84z" fill="#fff"/><path d="M418.52 78.74a.501.501 0 0 1-.276-.083l-116.1-76.9a.5.5 0 0 1-.14-.694l.56-.84A.501.501 0 0 1 302.98 0h88.12a.5.5 0 0 1 .276.083l27.42 18.16c.14.093.224.25.224.417v59.58a.499.499 0 0 1-.5.5zM303.114 1.2 418.02 77.309v-58.38L390.95 1h-87.702z" fill="#60657C"/><path d="M638.01 164.27v59.58L439.48 93.01V33.43z" fill="#fff"/><path d="M638.01 224.35a.498.498 0 0 1-.275-.083l-198.53-130.84a.499.499 0 0 1-.225-.417V33.43a.5.5 0 0 1 .776-.417l198.53 130.84c.141.092.225.25.225.417v59.58a.5.5 0 0 1-.501.5zM439.98 92.741l197.53 130.181V164.54L439.98 34.358z" fill="#60657C"/><path d="m393.34 84.24 25.18 16.65v23.81l-30.16-19.94-18.44-12.19-16.78-11.09-1.49-.99L230.63.5h36.02l120.38 79.57z" fill="#fff"/><path d="M418.52 125.2a.496.496 0 0 1-.275-.083L230.354.917A.5.5 0 0 1 230.63 0h36.02c.098 0 .194.029.276.083l151.87 100.39a.497.497 0 0 1 .225.417v23.81a.5.5 0 0 1-.501.5zM232.293 1 418.02 123.77v-22.61L266.5 1z" fill="#60657C"/><path d="M638.01 246.21v23.81L439.48 139.44v-23.81z" fill="#fff"/><g fill="#60657C"><path d="M638.01 270.52a.502.502 0 0 1-.274-.082l-198.53-130.58a.501.501 0 0 1-.226-.418v-23.81a.5.5 0 0 1 .775-.418l198.53 130.58c.141.093.226.25.226.418v23.81a.5.5 0 0 1-.501.5zM439.98 139.17l197.53 129.922V246.48L439.98 116.557zM199.03 372.7H.5a.5.5 0 0 1-.5-.5V.5A.5.5 0 0 1 .5 0h198.53a.5.5 0 0 1 .5.5v371.7a.5.5 0 0 1-.5.5zM1 371.7h197.53V1H1zm417.52 1H219.99a.5.5 0 0 1-.5-.5V.5a.5.5 0 0 1 .5-.5h198.53a.5.5 0 0 1 .5.5v371.7c0 .277-.223.5-.5.5zm-198.03-1h197.53V1H220.49z"/><path d="M638.01 372.7H439.48a.5.5 0 0 1-.5-.5V.5a.5.5 0 0 1 .5-.5h198.53a.5.5 0 0 1 .5.5v371.7c0 .277-.223.5-.5.5zm-198.03-1h197.53V1H439.98z"/></g></svg></g><g transform="translate(373.0 234.0) rotate(0.0 129.0 405.5) scale(1.9746358786746978 1.9877012516880754)"><svg width="130.657" height="408.009" viewBox="0 0 130.657 408.009"><circle cx="86.7" cy="90.4" fill="#002652" r="14.276"/><path d="m112.493 176.153 5.384 21.051a7.173 7.173 0 0 1 .027 3.404l-18.603 79.983s-18.426 1.565-18.399 1.053l3.104-57.723 1.913-46.685z" fill="#99644c"/><path d="m99.922 270.099-2.045 38.023a18.292 18.292 0 0 1-.481 3.295L81.063 379.6s-15.708-.042-15.169-.013l3.923-71.367a18.632 18.632 0 0 1 1.386-6.071l11.128-26.97z" fill="#99644c"/><path d="m117.877 197.204-5.384-21.051-26.573 1.082-1.913 46.685-2.919 54.275-9.884 23.954a18.581 18.581 0 0 0-1.386 6.071l-3.923 71.365c.475-.024 15.168.015 15.168.015l16.334-68.183c.26-1.087.421-2.19.48-3.295l1.498-27.851 18.529-79.664a7.182 7.182 0 0 0-.027-3.403z" fill="#1d2445" opacity=".1"/><g fill="#99644c"><path d="m7.436 24.223 9.908.57 8.081 51.551-15.561 4.53-2.225-16.658a40.015 40.015 0 0 1-.352-5.47z"/><path d="m7.246 26.621.595 10.049 5-2.664.414-.089a9.653 9.653 0 0 0 3.752-1.829 9.629 9.629 0 0 0 2.646-3.225l.014.013 6.943-13.092a.703.703 0 0 0-.211-.942 1.36 1.36 0 0 0-1.905.281l-4.428 5.101a1.525 1.525 0 0 1-2.589-.522l-3.996-9.994-3.207 2.044-.011 1.63a11.09 11.09 0 0 1-.277 2.373L8.345 22.95a5.969 5.969 0 0 1-.663 1.681c-.349.597-.477 1.299-.436 1.99z"/><path d="M8.407.024c.797-.142 1.675.359 2.084 1.268l5.102 14.258-3.978 3.124L8.047.67a.516.516 0 0 1 .36-.646zm-1.976 1.9c.81.002 1.584.652 1.825 1.619l2.583 15.684-4.091 2.863-.786-19.594a.516.516 0 0 1 .456-.571l.013-.001z"/><path d="M4.32 5.888c.81-.03 1.61.588 1.889 1.545l3.078 14.828-3.973 3.024-1.44-18.807a.517.517 0 0 1 .433-.588l.013-.002z"/><path d="M.291 12.41c.757-.288 1.713.042 2.284.858l7.665 13.061-2.795 4.138L.058 13.112a.516.516 0 0 1 .222-.696l.011-.006z"/></g><path d="M113.247 179.67H62.34l-18.91-59.978h52.924z" fill="#013b84"/><path d="m118.237 145.346-70.694-12.075-5.797-36.334 57.878 11.761a11.232 11.232 0 0 1 8.366 7.303z" fill="#013b84"/><path d="M58.309 111.767 25.314 75.223 10.692 79.22a1.477 1.477 0 0 0-.73 2.389l39.118 45.456z" fill="#013b84"/><path d="m62.944 273.129-16.869 34.364a18.049 18.049 0 0 0-1.665 5.4l-9.577 67.092s13.249 2.873 12.734 2.702l25.069-66.726 4.564-31.767z" fill="#99644c"/><path d="m99.433 187.031 7.035 22.727-31.692 85.289s-14.609-8.508-14.609-9.019l12.751-97.914z" fill="#99644c"/><path d="M84.169 380.158H79.39l1.556-8.801a3.409 3.409 0 0 1 3.356-2.815h1.92z" fill="#a9cfff"/><path d="M66.101 377.707h16.328v5.937H66.101z" fill="#99644c"/><path d="M85.381 393.773H62.602l-.021-2.295a26.103 26.103 0 0 1 1.584-9.197l2.093-5.727 19.123 7.024z" fill="#7eb8ff"/><path d="M65.821 375.022v8.754c.52 0 14.162 7.459 14.53 7.826l2.171 2.171h26.86l-.866-2.489a3.92 3.92 0 0 0-2.782-2.523l-14.07-3.401a11.737 11.737 0 0 1-6.661-4.405l-3.235-4.351a3.922 3.922 0 0 0-3.147-1.582z" fill="#7eb8ff"/><path d="M62.528 393.405h46.851v3.501H62.528z" fill="#a9cfff"/><circle cx="71.463" cy="386.171" fill="#e6e6e6" r="4.183"/><path d="M62.197 267.239h41.643l14.831-66.171H61.627zm0-84.425h52.301l4.173 18.254H61.627z" fill="#3d94ff"/><path d="m97.244 122.133 11.846 8.569a7.488 7.488 0 0 1 2.853 7.969l-3.821 14.541a7.492 7.492 0 0 0-.011 3.765l6.629 25.818-53.221 21.747V176.61l-6.205-58.596z" fill="#013b84"/><path d="M41.119 404.845a7.197 7.197 0 0 1-6.472 3.145l-9.215-.657c-2.965-.312-4.663-3.535-3.245-6.157l12.309-22.751 14.469 5.24-1.189 11.341z" fill="#a9cfff"/><path d="M41.317 402.165a7.197 7.197 0 0 1-6.472 3.145l-9.215-.657c-2.965-.312-4.663-3.535-3.245-6.157l12.309-22.751 14.469 5.24-1.189 11.341z" fill="#7eb8ff"/><path d="m35.671 379.728 10.246 3.558 3.557-10.242a3.55 3.55 0 0 0-2.189-4.519l-3.537-1.228a3.55 3.55 0 0 0-4.519 2.189z" fill="#a9cfff"/><path d="m38.902 384.616-6.612-2.409 3.895-10.693 2.439.889a3.597 3.597 0 0 1 2.26 4.25z" fill="#7eb8ff"/><path d="m47.181 387.632-8.888-3.238 3.943-7.385a3.598 3.598 0 0 1 4.406-1.686l4.434 1.615z" fill="#7eb8ff"/><path d="m75.511 122.204-18.235-22.078 36.669 7.443-17.373 14.73a.749.749 0 0 1-1.061-.095z" fill="#2888ff"/><path d="M72.175 115.81h1v29.797h-1z" fill="#2888ff"/><path d="M71.965 147.864h1.42a.591.591 0 0 0 .529-.855l-.71-1.42a.59.59 0 0 0-1.057 0l-.71 1.42a.59.59 0 0 0 .528.855z" fill="#93c3ff"/><path d="M79.146 115.143h1v31.295h-1z" fill="#2888ff"/><path d="M78.85 147.864h1.42a.591.591 0 0 0 .529-.855l-.71-1.42a.59.59 0 0 0-1.057 0l-.71 1.42a.59.59 0 0 0 .528.855z" fill="#93c3ff"/><circle cx="74.721" cy="90.4" fill="#002652" r="14.276"/><path d="m75.029 121.764-7.601-19.19v-14.51h17.869v17.879l-8.226 15.923c-.442.856-1.687.794-2.042-.102z" fill="#99644c"/><path d="M77.117 97.796v5.901l3.744-7.861-1.697-.039a1.999 1.999 0 0 0-2.047 1.999z" fill="#002652" opacity=".1"/><path d="m104.629 214.879 9.757 5.807 3.001-9.1-7.164-3.499z" fill="#99644c"/><path d="m112.735 207.565-8.914 3.612c-.422.171-.767.49-.971.897l-1.046 2.09a1.875 1.875 0 0 1-.677.747l-4.383 2.758a.373.373 0 0 0-.117.516l.514.817a2.28 2.28 0 0 0 2.885.855l3.447-1.593c.408-.188.76-.478 1.023-.842l2.045-2.826 7.5-2.997z" fill="#99644c"/><path d="m117.212 212.216-8.401-3.016 6.525-51.771 9.781-.025c3.382-.009 5.977 2.996 5.479 6.34l-1.452 9.732a39.99 39.99 0 0 1-1.494 6.378z" fill="#99644c"/><path d="m105.159 115.46 24.284 42.191 1.118 4.435-15.75.25-26.968-42.475z" fill="#013b84"/><circle cx="89.608" cy="73.093" fill="#002652" r="11.842"/><path d="M60.624 90.825h31.82V67.24c0-7.65-6.201-13.851-13.851-13.851h-4.118c-7.65 0-13.851 6.201-13.851 13.851z" fill="#002652"/><path d="M89.465 59.897H74.491c-6.203 0-11.231 5.028-11.231 11.231v12.74c0 1.915.734 3.758 2.051 5.148l6.457 6.819h9.189l6.457-6.819a7.487 7.487 0 0 0 2.051-5.148v-6.002z" fill="#99644c"/><path d="M70.505 67.353h9.888v12.57h-9.888zM90.17 81.325h-7.394a.893.893 0 0 1-.893-.893V73.09c0-.493.4-.893.893-.893h7.394a4.564 4.564 0 1 1 0 9.128z" fill="#99644c"/><path d="M63.712 83.482h7.394c.493 0 .893-.4.893-.893v-7.342c0-.493-.4-.893-.893-.893h-7.394a4.564 4.564 0 1 0 0 9.128z" fill="#99644c"/><path d="M83.537 57.321h-8.766l1.958 7.378a10.005 10.005 0 0 0 9.671 7.439h6.341v-5.615a9.204 9.204 0 0 0-9.204-9.202z" fill="#002652"/><path d="M66.161 74.687h-4.486l-.101-2.498h4.587z" fill="#93c3ff"/><path d="M81.61 83.338h-3.744v-9.734z" fill="#002652" opacity=".1"/><path d="M73.99 73.189v4.632a.36.36 0 0 1-.36.36h-6.745a.36.36 0 0 1-.36-.36v-4.632zm1-1h-9.464v5.632c0 .751.609 1.36 1.36 1.36h6.745a1.36 1.36 0 0 0 1.36-1.36v-5.632zm11.21 1v4.632a.36.36 0 0 1-.36.36h-6.745a.36.36 0 0 1-.36-.36v-4.632zm1-1h-9.464v5.632c0 .751.609 1.36 1.36 1.36h6.745a1.36 1.36 0 0 0 1.36-1.36v-5.632z" fill="#93c3ff"/><path d="m80.861 85.745-.722 1.767-3.365.659v-2.466zm-8.173 0 .722 1.767 3.364.659v-2.466z" fill="#002652" opacity=".1"/><path d="M85.192 72.107c1.067 0 1.932.865 1.932 1.932v6.647c0 2.836 1.361 5.5 3.66 7.162 2.14 1.546 4.447 3.222 4.576 3.351v-9.733a3.369 3.369 0 0 1-3.369-3.369V67.24h-6.799z" fill="#002652"/><path d="M89.745 69.861h6.364v11.605h-6.364z" fill="#002652"/><path d="M78.615 74.687H74.13l-.102-2.498h4.587z" fill="#93c3ff"/></svg></g><g transform="translate(691.0 335.0) rotate(0.0 123.5 348.5) translate(0.0 0.0) scale(2.0296476465947935 2.0253679515306495)"><svg width="121.696" height="344.135" viewBox="0 0 121.696 344.135"><path d="M51.236 36.825h26.619V14.298C77.856 6.402 71.454 0 63.557 0h-4.251C51.41 0 45.008 6.402 45.008 14.298v16.298a6.229 6.229 0 0 0 6.228 6.229z" fill="#002652"/><path d="M15.744 64.383 3.929 107.645a3.736 3.736 0 0 0 .14 2.387l3.198 7.923a3.745 3.745 0 0 0 3.663 2.338l9.672-.497 16.833-55.402z" fill="#93c3ff"/><path d="M6.415 88.878.487 118.862a7.487 7.487 0 0 0 3.484 7.867l3.034 1.826A7.488 7.488 0 0 0 17.281 126l2.986-4.962a7.486 7.486 0 0 0 .953-5.19l-3.834-21.243z" fill="#c78982"/><path d="m106.296 64.383 11.815 43.262c.216.79.167 1.628-.14 2.387l-3.198 7.923a3.745 3.745 0 0 1-3.663 2.338l-9.672-.497-16.833-55.403z" fill="#93c3ff"/><path d="m115.626 88.878 5.928 29.984a7.487 7.487 0 0 1-3.484 7.867l-3.034 1.826A7.488 7.488 0 0 1 104.76 126l-2.986-4.962a7.486 7.486 0 0 1-.953-5.19l3.834-21.243z" fill="#c78982"/><path d="m27.862 51.31 31.286-5.912 34.844 5.712a14.976 14.976 0 0 1 12.398 12.634l2.922 20.212-96.668-.501 3.218-19.831a14.973 14.973 0 0 1 12-12.314z" fill="#93c3ff"/><path d="m31.618 113.494-5.496 29.745-.909 77.246s25.495-1.052 25.58-1.532l17.06-97.995z" fill="#2888ff"/><path d="m18.068 253.99 3.483 33.653 1.185 11.464.646 6.262.192 1.853.621 5.99.305 2.954.462 4.492.028.257 6.458 1.094c1.528.261 3.149.536 4.644.796.846.142 1.646.282 2.373.407 1.864.32 3.21.559 3.382.599l.039-.543.111-1.538.884-12.091.99-13.561 5.917-45.752 1.725-34.023-24.871-4.274-8.205 35.858c-.454 2-.579 4.062-.369 6.103z" fill="#2888ff"/><path d="M43.739 338.971H19.642l-1.295-5.955a7.485 7.485 0 0 1 .679-5.056l3.237-6.201 9.772-5.508 9.832 5.508 2.026 5.215a15 15 0 0 1 .579 9.03z" fill="#73b2ff"/><path d="M40.193 344.135h-16.6c-.935 0-1.767-.51-2.068-1.27l-1.68-4.238h24.097l-1.68 4.238c-.302.759-1.133 1.27-2.069 1.27z" fill="#016eea"/><path d="M36.906 314.875H26.88a1.872 1.872 0 0 0-1.872 1.872v9.682c0 1.034.838 1.872 1.872 1.872h10.026a1.872 1.872 0 0 0 1.872-1.872v-9.682a1.872 1.872 0 0 0-1.872-1.872z" fill="#73b2ff"/><path d="M30.172 335.873h3.442a2.59 2.59 0 0 1 2.582 2.582 2.59 2.59 0 0 1-2.582 2.582h-3.442a2.59 2.59 0 0 1-2.582-2.582 2.59 2.59 0 0 1 2.582-2.582z" fill="#016eea"/><path d="m89.394 113.494 5.496 29.745.909 77.246s-25.495-1.052-25.58-1.532l-17.06-97.995z" fill="#2888ff"/><path d="m102.943 253.99-3.483 33.653-1.185 11.464-.646 6.262-.192 1.853-.621 5.99-.305 2.954-.462 4.492-.028.257-6.458 1.094c-1.528.261-3.149.536-4.644.796-.846.142-1.646.282-2.373.407-1.864.32-3.21.559-3.382.599l-.039-.543-.111-1.538-.884-12.091-.99-13.561-5.917-45.752-1.725-34.023 24.871-4.274 8.205 35.858c.454 2 .579 4.062.369 6.103z" fill="#2888ff"/><path d="M77.273 338.971h24.097l1.295-5.955a7.485 7.485 0 0 0-.679-5.056l-3.237-6.201-9.772-5.508-9.832 5.508-2.026 5.215a15 15 0 0 0-.579 9.03z" fill="#73b2ff"/><path d="M80.818 344.135h16.6c.935 0 1.767-.51 2.068-1.27l1.68-4.238H77.07l1.68 4.238c.301.759 1.133 1.27 2.068 1.27z" fill="#016eea"/><path d="M84.105 314.875h10.026c1.034 0 1.872.838 1.872 1.872v9.682a1.872 1.872 0 0 1-1.872 1.872H84.105a1.872 1.872 0 0 1-1.872-1.872v-9.682c0-1.034.838-1.872 1.872-1.872z" fill="#73b2ff"/><path d="M90.839 335.873h-3.442a2.59 2.59 0 0 0-2.582 2.582 2.59 2.59 0 0 0 2.582 2.582h3.442a2.59 2.59 0 0 0 2.582-2.582 2.59 2.59 0 0 0-2.582-2.582z" fill="#016eea"/><path d="m94.712 51.762-68.789.381v93.692h68.789z" fill="#93c3ff"/><path d="m59.581 70.942-7.502-24.42V31.204h17.869V47.27l-8.233 23.71c-.355 1.026-1.815 1-2.134-.038z" fill="#c78982"/><path d="M75.507 6.718H60.05c-6.403 0-11.593 5.19-11.593 11.593v13.152c0 1.977.758 3.879 2.117 5.314l6.666 7.039h9.485l6.666-7.039a7.729 7.729 0 0 0 2.117-5.314V6.718z" fill="#c78982"/><path d="M73.138 28.837h-7.632a.922.922 0 0 1-.922-.922v-7.579c0-.509.413-.922.922-.922h7.632a4.71 4.71 0 0 1 4.711 4.711 4.71 4.71 0 0 1-4.711 4.712zm-23.183 0h7.632a.922.922 0 0 0 .922-.922v-7.579a.922.922 0 0 0-.922-.922h-7.632a4.71 4.71 0 1 0 0 9.423z" fill="#c78982"/><path d="M69.853 4.058H54.145l2.021 7.616a10.33 10.33 0 0 0 9.983 7.68H76.82v-8.328a6.968 6.968 0 0 0-6.967-6.968z" fill="#002652"/><path d="M65.509 19.322c1.102 0 1.995.893 1.995 1.995v8.739c0 2.144.91 4.186 2.5 5.624 1.592 1.44 2.553 2.915 11.004 3.041l-2.179-4.759-1.09-6.608.039-13.055H65.509z" fill="#002652"/><path d="M7.483 76.096h105.573v44.438H7.483z" fill="#2888ff"/><path d="M11.369 79.385h96.715v37.86H11.369z" fill="#fff"/><g fill="#c78982"><path d="M16.402 87.173c-.004.007-.007.015-.015.019-.801.85-2.235 1.052-3.5.359l-9.433-6.144a1.123 1.123 0 0 1-.51-.941V79.09c0-1.034.838-1.872 1.872-1.872h.537c.267 0 .525.095.728.268l10.156 8.653c.334.24.405.705.165 1.034z"/><path d="M14.575 91.308c-.004.007-.007.015-.015.019-.801.85-2.235 1.052-3.5.359l-9.433-6.144a1.123 1.123 0 0 1-.51-.941v-1.375c0-1.034.838-1.872 1.872-1.872h.537c.267 0 .525.095.728.268l10.156 8.653a.737.737 0 0 1 .165 1.033z"/><path d="M11.868 95.289a.035.035 0 0 1-.016.016c-.839.709-2.201.745-3.309-.037l-8.16-6.747a1.056 1.056 0 0 1-.376-.934l.147-1.285c.11-.966.983-1.66 1.949-1.55l.502.057c.249.028.481.145.652.328l8.568 9.168a.696.696 0 0 1 .043.984z"/><path d="M10.098 98.233a.04.04 0 0 1-.014.015c-.751.679-2.005.754-3.051.068L.448 93.439a.975.975 0 0 1-.376-.849l.095-1.189a1.623 1.623 0 0 1 1.748-1.488l.464.037a.98.98 0 0 1 .611.282l7.036 7.096a.64.64 0 0 1 .072.905zm90.673-11.06c.004.007.007.015.015.019.801.85 2.235 1.052 3.5.359l9.433-6.144c.318-.207.51-.561.51-.941V79.09a1.872 1.872 0 0 0-1.872-1.872h-.537c-.267 0-.525.095-.728.268l-10.156 8.653a.74.74 0 0 0-.165 1.034z"/><path d="M102.599 91.308c.004.007.007.015.015.019.801.85 2.235 1.052 3.5.359l9.433-6.144c.318-.207.51-.561.51-.941v-1.375a1.872 1.872 0 0 0-1.872-1.872h-.537c-.267 0-.525.095-.728.268l-10.156 8.653a.737.737 0 0 0-.165 1.033z"/><path d="M105.306 95.289a.035.035 0 0 0 .016.016c.839.709 2.201.745 3.309-.037l8.16-6.747c.275-.228.417-.579.376-.934l-.147-1.285a1.761 1.761 0 0 0-1.949-1.55l-.502.057a1.056 1.056 0 0 0-.652.328l-8.568 9.168a.696.696 0 0 0-.043.984z"/><path d="M107.075 98.233a.04.04 0 0 0 .014.015c.751.679 2.005.754 3.051.068l6.585-4.877a.975.975 0 0 0 .376-.849l-.095-1.189a1.623 1.623 0 0 0-1.748-1.488l-.464.037a.98.98 0 0 0-.611.282l-7.036 7.096a.64.64 0 0 0-.072.905z"/></g><path d="m68.013 42.001-4.652 4.526h6.62v-3.695c0-1.026-1.233-1.546-1.968-.831z" fill="#002652" opacity=".1"/><path d="m73.526 25.985.053-.067h-.053v-1.603a2.262 2.262 0 0 0-2.262-2.262h-4.756a3.047 3.047 0 0 0-3.047 3.046v.369c0 .155.022.304.055.449h-.055v5.343a2 2 0 0 1-2 2h-3.024l5.808 2.139 6.833-6.333 1.272-1.602h1.175v-1.479z" fill="#1d2445" opacity=".1"/></svg></g><g transform="translate(938.0 298.0) rotate(0.0 205.0 368.5) translate(0.0 0.0) scale(1.987233238172327 1.9869567210091692)"><svg width="204.807" height="370.416" viewBox="0 0 204.807 370.416"><ellipse cx="199.121" cy="12.04" fill="#ed956e" rx="3.563" ry="5"/><path d="m126.156 324.386-11.515 10.808-14.574 13.679c-.857.022-1.67.049-2.407.071-1.891.056-3.257.105-3.433.12l.037-.543.105-1.539.816-12.095.917-13.567.61-.12a1.874 1.874 0 0 1 2.145 1.273l.82 2.598 4.826-1.748a9.08 9.08 0 0 0 5.945-7.581l.569-5.338c.097-.932 1.235-1.34 1.906-.681l6.461 6.368 4.548 4.485.393.386z" fill="#002652"/><path d="m124.187 330.978-10.999 10.059-8.412 7.697c-1.55.045-3.193.09-4.709.138-.857.022-1.67.049-2.407.071l12.208-11.171c.359-.329.576-.786.606-1.273a9.402 9.402 0 0 1 3.04-6.394l3.092-2.83 7.326-6.701.183-.169a1.125 1.125 0 0 1 1.831.498l.517 1.67a8.131 8.131 0 0 1-2.276 8.405z" fill="#2888ff"/><path d="m115.09 333.385-2.617 10.534-1.086 4.384-17.123.217-12.612.161h-.03l-.195-.127-2.418-1.572-1.415-.921a3.915 3.915 0 0 1 1.579-7.157l8.509-1.217a18.747 18.747 0 0 0 7.502-2.8 18.737 18.737 0 0 0 5.593-5.6l3.519-5.469 3.365 2.059a1.87 1.87 0 0 1 .722 2.385l-1.145 2.471 4.739 1.969a8.991 8.991 0 0 0 3.113.683z" fill="#002652"/><path d="M105.241 346.982v4.649H87.878a3.764 3.764 0 0 1-1.838-.479l-4.387-2.471-.225-.127-2.793-1.572z" fill="#2888ff"/><path d="m91.568 361.987 17.112-.052 3.021-15.297-17.161 1.968-2.07 3.827a7.488 7.488 0 0 0-.902 3.563z" fill="#99644c"/><path d="m128.089 52.459-36.232 3.369V40.35c0-8.762 7.103-15.865 15.865-15.865h4.502c8.762 0 15.865 7.103 15.865 15.865z" fill="#93c3ff"/><path d="M78.921 154.067 49.142 252.81a14.974 14.974 0 0 0 2.49 13.483l46.942 60.719 10.294-21.337-19.093-43.592c-.412-.94-.9-1.844-1.46-2.704l-7.148-10.977 41.552-65.696-7.3-39.867z" fill="#5ea6ff"/><path d="m127.823 74.452 42.785-17.189 12.028 3.305.791 12.328-52.73 28.219z" fill="#013b84"/><path d="m137.077 143.211 1.152 2.512a30.058 30.058 0 0 1 .817 23.091l-1.744 4.645-12.575 76.221s-24.921-5.482-24.921-5.969l.29-99.468z" fill="#5ea6ff"/><path d="m75.629 165.536 65.046-13.109-2.491-35.215-62.555-31.523z" fill="#013b84"/><path d="m78.169 79.098 70.327-9.055 12.234-4.922-22.087 58.774-76.453-13.174 3.111-19.17a14.974 14.974 0 0 1 12.868-12.453z" fill="#013b84"/><path d="M100.872 113.896V55.547h19.12v18.377l-16.961 40.406c-.475 1.131-2.159.792-2.159-.434z" fill="#ed956e"/><path d="M94.227 349.063v.004c-.026 0-.022-.004 0-.004z" fill="#29abe2"/><path d="m127.541 283.255-8.157 32.835-2.778 11.186-1.516 6.11-.449 1.808-1.453 5.844-.715 2.883-1.086 4.384-.064.251s-3.032.082-6.547.18c-1.55.045-3.193.09-4.709.138-.857.022-1.67.049-2.407.071-1.891.056-3.257.105-3.433.12l.037-.543.105-1.539.816-12.095.917-13.567 3.1-45.769.494-34.291 25.224-.752 3.107 36.653a18.744 18.744 0 0 1-.486 6.093z" fill="#5ea6ff"/><path d="M78.36 173.18h13.289a7.487 7.487 0 0 1 7.487 7.487v36.872z" fill="#002652" opacity=".1"/><path d="M87.329 365.755h22.695l1.329-3.705a18.706 18.706 0 0 0 .851-9.351l-.682-4.155-9.772-5.508-9.832 5.508-4.914 7.769a7.444 7.444 0 0 0-1.151 4.081l.056 3.96a1.42 1.42 0 0 0 1.42 1.401z" fill="#002652"/><path d="M89.847 370.919h16.6c.935 0 1.767-.51 2.068-1.27l1.68-4.238H86.099l1.68 4.238c.301.759 1.133 1.27 2.068 1.27z" fill="#2888ff"/><path d="M98.227 340.91h10.026c1.034 0 1.703.838 1.496 1.872l-1.945 9.682c-.208 1.034-1.214 1.872-2.248 1.872H95.529c-1.034 0-1.703-.838-1.496-1.872l1.945-9.682c.208-1.034 1.215-1.872 2.249-1.872z" fill="#002652"/><path d="M99.868 362.657h-3.442a2.59 2.59 0 0 0-2.582 2.582 2.59 2.59 0 0 0 2.582 2.582h3.442a2.59 2.59 0 0 0 2.582-2.582 2.59 2.59 0 0 0-2.582-2.582z" fill="#2888ff"/><path d="M199.953 23.467 187.225 68.08a8.447 8.447 0 0 1-7.04 6.06l-.585.076c-4.814.623-9.161-2.93-9.51-7.771l-.44-6.102a8.45 8.45 0 0 1 1.166-4.927l20.125-33.818zm-76.194 10.516h-15.457c-6.403 0-11.593 5.19-11.593 11.593v13.152c0 1.977.758 3.879 2.117 5.314l6.666 7.039h9.485l6.666-7.039a7.729 7.729 0 0 0 2.117-5.314V33.983z" fill="#ed956e"/><path d="M121.39 56.102h-7.632a.922.922 0 0 1-.922-.922v-7.579c0-.509.413-.922.922-.922h7.632a4.71 4.71 0 0 1 4.711 4.711 4.71 4.71 0 0 1-4.711 4.712z" fill="#ed956e"/><path d="m116.265 69.266-4.652 4.526h6.62v-3.695c0-1.026-1.233-1.546-1.968-.831z" fill="#002652" opacity=".1"/><path d="m121.779 53.25.053-.067h-.053V51.58a2.262 2.262 0 0 0-2.262-2.262h-4.756a3.047 3.047 0 0 0-3.047 3.046v.369c0 .155.022.304.055.449h-.055v5.343a2 2 0 0 1-2 2h-3.024l5.808 2.139 6.833-6.333 1.272-1.602h1.175V53.25z" fill="#1d2445" opacity=".1"/><path d="M104.471 36.725h-3.696a3.743 3.743 0 0 0-3.743 3.791l.047 3.726v15.96c0 1.078-1.371 1.537-2.02.676l-4.399-5.832a3.744 3.744 0 0 1-.03-4.468l1.747-2.382a3.744 3.744 0 0 0 .725-2.214v-7.01l1.497-4.492z" fill="#93c3ff"/><path d="M98.712 36.725h3.087a3.742 3.742 0 0 1 3.742 3.65l.039 1.567a3.744 3.744 0 0 0 3.742 3.65h4.745a4.039 4.039 0 0 1 4.039 4.04l-.001 9.971a3.571 3.571 0 0 0 3.571 3.571h.071a3.63 3.63 0 0 0 2.569-1.064c2.139-2.139 5.057-5.147 7.128-7.293a3.743 3.743 0 0 0-.047-5.246l-3.328-3.328a3.748 3.748 0 0 1-1.068-2.183l-.964-7.71-6.249-8.134z" fill="#93c3ff"/><g fill="#ed956e"><path d="M98.208 56.102h7.632a.922.922 0 0 0 .922-.922v-7.579a.922.922 0 0 0-.922-.922h-7.632a4.71 4.71 0 0 0-4.711 4.711 4.71 4.71 0 0 0 4.711 4.712zM.024 177.363c.337.87 1.356 1.433 2.496 1.292l17.084-3.514 1.384-5.582-20.544 7.063a.594.594 0 0 0-.42.741z"/><path d="M2.879 179.066c.182.915 1.089 1.646 2.236 1.703l17.434-.517 2.326-5.26-21.453 3.417a.594.594 0 0 0-.543.657z"/><path d="M6.035 180.641c.209.909 1.137 1.613 2.285 1.636l17.411-1.031 2.17-5.326-21.343 4.047a.595.595 0 0 0-.524.658l.001.016z"/><path d="M12.24 182.567c.209.909 1.137 1.613 2.285 1.636l12.852-.761a7.247 7.247 0 0 0 6.283-4.5l.446-1.096-21.343 4.047a.595.595 0 0 0-.523.674z"/><path d="m29.236 183.064-5.327-7.468c-1.059-2.972.506-6.271 3.478-7.33l4.52-1.611c2.972-1.059 10.655.041 11.714 3.014l-6.591 8.646a8.289 8.289 0 0 1-2.994 2.441z"/><path d="m37.023 167.225-13.711 4.886 1.025-.427a2.016 2.016 0 0 0 .934-2.918l-.009-.036a2.415 2.415 0 0 0-1.664-1.102l-3.293-.51a4.663 4.663 0 0 1-2.274-.996c-.435-.377-.793-.822-.96-1.291a1.615 1.615 0 0 1-.091-.764.796.796 0 0 1 1.011-.639l10.06 1.952 2.443-.074a9.432 9.432 0 0 1 4.345.892l2.04.968c.047.021.094.041.144.059z"/><path d="m35.992 166.874-14.5 5.167 1.084-.451a2.132 2.132 0 0 0 .987-3.086l-.01-.039a2.555 2.555 0 0 0-1.76-1.165l-3.482-.54a4.93 4.93 0 0 1-2.405-1.054c-.46-.399-.838-.869-1.015-1.365a1.722 1.722 0 0 1-.097-.808.842.842 0 0 1 1.069-.676l10.639 2.064 2.584-.078a9.972 9.972 0 0 1 4.595.944l2.157 1.024c.052.022.101.043.154.063z"/><ellipse cx="27.053" cy="174.287" rx="8.454" ry="9.139" transform="matrix(.3357 .942 -.942 .3357 182.145 90.2959)"/><path d="m27.311 167.932 30.062-22.975 14.537 5.54a1.987 1.987 0 0 1 .779 3.175l-5.306 5.983a20.016 20.016 0 0 1-6.448 4.827l-27.32 12.855z"/></g><path d="m65.34 90.682-6.731 43.55-1.59 10.966 16.213 7.55 14.111-59.821z" fill="#013b84"/><path d="m196.977 30.097-4.42-4.972c-2.811-1.767-3.233-3.492-3.816-5.797l-1.007-4.059a8.413 8.413 0 0 1 .229-4.437 9.604 9.604 0 0 0 .5-2.722c.146-2.627.447-6.758.447-6.758.12-.72.702-1.272 1.419-1.343l.06-.004c.847-.07 1.593.56 1.663 1.407.08.856.61 5.962.801 7.542a.597.597 0 0 0 .488.527.58.58 0 0 0 .622-.284l.979-1.763z" fill="#ed956e"/><path d="m196.077 26.003-4.63-2.732a4.878 4.878 0 0 1-1.722-6.681l2.278-3.861a4.878 4.878 0 0 1 6.681-1.722l5.478 3.675c1.789 1.056 2.758 2.615 1.442 4.775l-2.847 4.824a4.876 4.876 0 0 1-6.68 1.722z" fill="#ed956e"/><path d="m192.384 21.547-2.565-3.519c-2.089-2.867-1.076-6.297 1.791-8.386l.01-.007c2.867-2.089 6.501-2.047 8.59.819l2.565 3.519a6.423 6.423 0 0 1-1.407 8.974l-.01.007a6.423 6.423 0 0 1-8.974-1.407z" fill="#002652" opacity=".1"/><path d="M189.915 12c.004.007.008.015.015.019.801.85 2.235 1.052 3.5.359l9.433-6.144c.318-.207.51-.561.51-.941V3.918a1.872 1.872 0 0 0-1.872-1.872h-.537c-.267 0-.525.095-.728.268l-10.156 8.653a.737.737 0 0 0-.165 1.033z" fill="#ed956e"/><path d="M191.742 16.135c.004.007.007.015.015.019.801.85 2.235 1.052 3.5.359l9.433-6.144c.318-.207.51-.561.51-.941V8.053a1.872 1.872 0 0 0-1.872-1.872h-.537c-.267 0-.525.095-.728.268l-10.156 8.653a.737.737 0 0 0-.165 1.033z" fill="#ed956e"/><path d="M194.449 20.116a.035.035 0 0 0 .016.016c.839.709 2.201.745 3.309-.037l8.16-6.747c.275-.228.417-.579.376-.934l-.147-1.285a1.761 1.761 0 0 0-1.949-1.55l-.502.057a1.056 1.056 0 0 0-.652.328l-8.568 9.168a.696.696 0 0 0-.043.984z" fill="#ed956e"/><path d="M196.218 23.06a.04.04 0 0 0 .014.015c.751.679 2.005.754 3.051.068l6.585-4.877a.975.975 0 0 0 .376-.849l-.095-1.189a1.623 1.623 0 0 0-1.748-1.488l-.464.037a.98.98 0 0 0-.611.282l-7.036 7.096a.64.64 0 0 0-.072.905z" fill="#ed956e"/></svg></g><g transform="translate(1256.0 191.0) rotate(343.20060540065293 64.0 100.0) translate(0.0 0.0) scale(2.097432284070985 2.1043106804288585)"><svg width="51.015" height="79.361" viewBox="0 0 51.015 79.361"><g fill="#93c3ff"><path d="m31.194 41.389-1.186-.81c1.978-2.896 5.926-3.577 6.093-3.604l.235 1.417c-.035.006-3.514.615-5.142 2.997z"/><path d="M45.997 39.689s-1.326-.812-2.53-2.325-4.8-3.079-7.939-2.004c-3.195 1.095-2.612 5.471-.206 6.271 2.415.802 3.882-.71 4.616-1.802.735-1.093 1.792-1.929 6.059-.14zm-34.355 2.972s2.25-.684 3.682-1.801c2.491-1.944 8.463-.709 10.982 2.589 2.565 3.358-1.433 7.388-4.493 6.549-3.071-.842-4.429-2.637-5.065-4.155-.731-1.747-2.559-2.96-5.106-3.182z"/><path d="m28.773 51.688 1.436-.043c-.067-2.272-4.031-4.254-4.825-4.628l-.613 1.299c1.596.754 3.972 2.347 4.002 3.372z"/><path d="m16.281 20.338.219.158.564.444c.477.391 1.146.977 1.934 1.773 1.579 1.583 3.622 4.039 5.519 7.315a39.549 39.549 0 0 1 2.636 5.487c.788 2.009 1.438 4.192 1.952 6.478a49.333 49.333 0 0 1 1.039 7.131c.167 2.447.154 4.936.007 7.412l-.136 1.864-.17 1.815c-.12 1.21-.212 2.407-.354 3.61a204.282 204.282 0 0 1-.863 7.035c-.337 2.275-.677 4.475-1.066 6.552a165.93 165.93 0 0 1-1.193 5.814c-.394 1.781-.708 3.389-.898 4.813-.171 1.426-.269 2.67-.292 3.707a40.637 40.637 0 0 0-.017 2.411l.01.855-2.734.031.019-.895c.008-.583.026-1.439.103-2.535.062-1.094.209-2.428.445-3.944.262-1.511.635-3.183 1.052-4.965.854-3.554 1.758-7.659 2.388-12.159.323-2.246.615-4.575.873-6.941.144-1.178.241-2.391.365-3.596l.176-1.814.113-1.782a56.08 56.08 0 0 0-.072-7.118 46.981 46.981 0 0 0-1.052-6.783c-1.013-4.335-2.702-8.16-4.542-11.164a31.774 31.774 0 0 0-5.312-6.571 22.918 22.918 0 0 0-1.769-1.507l-.473-.345-.148-.099z"/><path d="M31.011 11.842c-.007-.022.082.35.185.966.111.618.238 1.51.379 2.644.278 2.266.5 5.494.632 9.357.064 1.932.089 4.023.062 6.232a239.199 239.199 0 0 1-.171 6.941c-.089 2.405-.248 4.885-.416 7.404L31.034 53c-.89 10.179-2.079 20.355-2.726 27.943a113.455 113.455 0 0 0-.386 11.714l.016.907-2.734.031.01-.927a92.54 92.54 0 0 1 .054-2.621c.033-1.129.096-2.501.205-4.07.101-1.57.271-3.333.453-5.249.375-3.833.925-8.267 1.452-13.02a933.11 933.11 0 0 0 1.491-14.903c.252-2.545.422-5.072.604-7.57.141-2.497.274-4.954.338-7.332.071-2.378.107-4.678.063-6.855a135.245 135.245 0 0 0-.206-6.127 88.91 88.91 0 0 0-.926-9.075 49.878 49.878 0 0 0-.455-2.472c-.117-.56-.188-.807-.192-.829z"/><path d="M44.432 19.078a88.924 88.924 0 0 0-2.489 4.46c-.79 1.491-1.53 3.002-2.268 4.513a162.85 162.85 0 0 0-4.117 9.19c-2.617 6.178-4.846 12.498-6.87 18.887-2.018 6.392-3.594 12.93-4.865 19.516-1.301 6.568-2.339 11.085-4.41 17.225l2.437.81c1.023-3.282 3.497-14.341 4.077-17.614.566-3.275 1.258-6.52 2.052-9.74.775-3.225 1.689-6.414 2.66-9.586.511-1.578.984-3.168 1.55-4.73l.82-2.351.864-2.335a173.756 173.756 0 0 1 3.722-9.233 160.783 160.783 0 0 1 4.276-8.983c.766-1.47 1.558-2.925 2.381-4.36.814-1.43 1.679-2.872 2.57-4.195z"/><path d="M51.294 51.498s-2.245-2.062-3.285-4.036c-1.359-2.578-6.15-4.316-9.771-3.076-3.687 1.263-3.271 5.98-.494 6.902 2.787.926 4.902-.832 6.167-1.671 1.456-.967 3.254-.495 7.383 1.881z"/><path d="m31.215 49.511 1.373.423c.354-1.151 3.14-1.788 4.434-1.916l-.141-1.429c-.503.049-4.937.554-5.666 2.922zm17.936-38.282c1.322-2.704 3.736-3.409 3.736-3.409s.912 2.367-.396 5.042l-2.635 5.389-3.34-1.633zM43.812 30.61c-1.322 2.704-3.736 3.409-3.736 3.409s-.912-2.367.396-5.042l2.635-5.389 3.34 1.633z"/><path d="M55.221 15.955c2.847-.977 5.052.231 5.052.231s-1.029 2.319-3.846 3.285l-5.674 1.947-1.207-3.516zm-17.479 9.929c-2.847.977-5.052-.231-5.052-.231s1.029-2.319 3.846-3.285l5.674-1.947 1.207 3.516zm13.704 3.775c.977 2.847-.231 5.052-.231 5.052s-2.319-1.029-3.285-3.846l-1.947-5.674 3.516-1.207zM41.517 12.18c-.977-2.847.231-5.052.231-5.052s2.319 1.029 3.285 3.846l1.947 5.674-3.516 1.207z"/><path d="M56.172 23.589c2.704 1.322 3.409 3.736 3.409 3.736s-2.367.912-5.042-.396l-5.389-2.635 1.633-3.34zM36.791 18.25c-2.704-1.322-3.409-3.736-3.409-3.736s2.367-.912 5.042.396l5.389 2.635-1.633 3.34z"/></g><path d="M45.322 10.935c.212-3.002 2.185-4.561 2.185-4.561s1.733 1.853 1.523 4.823l-.422 5.984-3.708-.262zm2.319 19.969c-.212 3.002-2.185 4.561-2.185 4.561s-1.733-1.853-1.523-4.823l.422-5.984 3.709.262z" fill="#bedbff"/><path d="M52.722 13.04c2.273-1.973 4.771-1.68 4.771-1.68s-.085 2.535-2.333 4.487l-4.53 3.933-2.437-2.807zM40.241 28.799c-2.273 1.973-4.771 1.68-4.771 1.68s.085-2.535 2.333-4.487l4.53-3.933 2.437 2.807zm14.12-1.639c1.973 2.273 1.68 4.771 1.68 4.771s-2.535-.085-4.487-2.333l-3.933-4.53 2.807-2.437zM38.602 14.679c-1.973-2.273-1.68-4.771-1.68-4.771s2.535.085 4.487 2.333l3.933 4.53-2.807 2.437z" fill="#bedbff"/><path d="M56.466 19.76c3.002.212 4.561 2.185 4.561 2.185s-1.853 1.733-4.823 1.523l-5.984-.422.262-3.709zm-19.969 2.319c-3.002-.212-4.561-2.185-4.561-2.185s1.853-1.733 4.823-1.523l5.984.422-.262 3.709z" fill="#bedbff"/><circle cx="46.481" cy="20.92" fill="#2888ff" r="5.658"/><path d="M33.026 4.855c1.322-2.704 3.736-3.409 3.736-3.409s.912 2.367-.396 5.042l-2.635 5.389-3.34-1.633zm-5.339 19.381c-1.322 2.704-3.736 3.409-3.736 3.409s-.912-2.367.396-5.042l2.635-5.389 3.34 1.633z" fill="#93c3ff"/><path d="M39.096 9.581c2.847-.977 5.052.231 5.052.231s-1.029 2.319-3.846 3.285l-5.674 1.947-1.207-3.516zm-17.479 9.93c-2.847.977-5.052-.231-5.052-.231s1.029-2.319 3.846-3.285l5.674-1.947 1.207 3.516zm13.704 3.774c.977 2.847-.231 5.052-.231 5.052s-2.319-1.029-3.285-3.846l-1.947-5.674 3.516-1.207zm-9.93-17.479c-.977-2.847.231-5.052.231-5.052s2.319 1.029 3.285 3.846l1.947 5.674-3.516 1.207z" fill="#93c3ff"/><path d="M40.047 17.215c2.704 1.322 3.409 3.736 3.409 3.736s-2.367.912-5.042-.396l-5.389-2.635 1.633-3.34zm-19.381-5.339c-2.704-1.322-3.409-3.736-3.409-3.736s2.367-.912 5.042.396l5.389 2.635-1.633 3.34z" fill="#93c3ff"/><path d="M29.197 4.561C29.409 1.559 31.382 0 31.382 0s1.733 1.853 1.523 4.823l-.422 5.984-3.709-.262zm2.319 19.969c-.212 3.002-2.185 4.561-2.185 4.561s-1.733-1.853-1.523-4.823l.422-5.984 3.709.262z" fill="#bedbff"/><path d="M36.597 6.666c2.273-1.973 4.771-1.68 4.771-1.68s-.085 2.535-2.333 4.487l-4.53 3.933-2.437-2.807zM24.116 22.425c-2.273 1.973-4.771 1.68-4.771 1.68s.085-2.535 2.333-4.487l4.53-3.933 2.437 2.807zm14.12-1.639c1.973 2.273 1.68 4.771 1.68 4.771s-2.535-.085-4.487-2.333l-3.933-4.53 2.807-2.437zM22.477 8.305c-1.973-2.273-1.68-4.771-1.68-4.771s2.535.085 4.487 2.333l3.933 4.53-2.807 2.437z" fill="#bedbff"/><path d="M40.341 13.387c3.002.212 4.561 2.185 4.561 2.185s-1.853 1.733-4.823 1.523l-5.984-.422.262-3.709zm-19.969 2.318c-3.002-.212-4.561-2.185-4.561-2.185s1.853-1.733 4.823-1.523l5.984.422-.262 3.709z" fill="#bedbff"/><circle cx="30.356" cy="14.546" fill="#2888ff" r="5.658"/><path d="M17.215 12.64c1.322-2.704 3.736-3.409 3.736-3.409s.912 2.367-.396 5.042l-2.635 5.389-3.34-1.633zm-5.339 19.381C10.554 34.725 8.14 35.43 8.14 35.43s-.912-2.367.396-5.042l2.635-5.389 3.34 1.633z" fill="#93c3ff"/><path d="M23.285 17.366c2.847-.977 5.052.231 5.052.231s-1.029 2.319-3.846 3.285l-5.674 1.947-1.207-3.516zm-17.479 9.93c-2.847.977-5.052-.231-5.052-.231S1.783 24.746 4.6 23.78l5.674-1.947 1.207 3.516zm13.705 3.775c.977 2.847-.231 5.052-.231 5.052s-2.319-1.029-3.285-3.846l-1.947-5.674 3.516-1.207zm-9.93-17.48c-.977-2.847.231-5.052.231-5.052s2.319 1.029 3.285 3.846l1.947 5.674-3.516 1.207z" fill="#93c3ff"/><path d="M24.236 25c2.704 1.322 3.409 3.736 3.409 3.736s-2.367.912-5.042-.396l-5.389-2.635 1.633-3.34zM4.855 19.662c-2.704-1.322-3.409-3.736-3.409-3.736s2.367-.912 5.042.396l5.389 2.635-1.633 3.34z" fill="#93c3ff"/><path d="M13.387 12.346c.212-3.002 2.185-4.561 2.185-4.561s1.733 1.853 1.523 4.823l-.422 5.984-3.709-.262zm2.318 19.969c-.212 3.002-2.185 4.561-2.185 4.561s-1.733-1.853-1.523-4.823l.422-5.984 3.709.262z" fill="#bedbff"/><path d="M20.786 14.451c2.273-1.973 4.771-1.68 4.771-1.68s-.085 2.535-2.333 4.487l-4.53 3.933-2.437-2.807zM8.305 30.211c-2.273 1.973-4.771 1.68-4.771 1.68s.085-2.535 2.333-4.487l4.53-3.933 2.437 2.807zm14.12-1.64c1.973 2.273 1.68 4.771 1.68 4.771s-2.535-.085-4.487-2.333l-3.933-4.53 2.807-2.437zM6.666 16.09c-1.973-2.273-1.68-4.771-1.68-4.771s2.535.085 4.487 2.333l3.933 4.53-2.807 2.437z" fill="#bedbff"/><path d="M24.53 21.172c3.002.212 4.561 2.185 4.561 2.185s-1.853 1.733-4.823 1.523l-5.984-.422.262-3.709zM4.561 23.49C1.559 23.278 0 21.305 0 21.305s1.853-1.733 4.823-1.523l5.984.422-.262 3.709z" fill="#bedbff"/><circle cx="14.546" cy="22.331" fill="#2888ff" r="5.658"/></svg></g><g transform="translate(1312.0 299.0) rotate(0.0 18.0 23.0) translate(0.0 0.0) scale(2.1760154738878144 2.131899708022431)"><svg width="16.084" height="21.577" viewBox="0 0 16.084 21.577"><g fill="#ed956e"><path d="M.142 9.954c.004.007.007.015.015.019.801.85 2.235 1.052 3.5.359l9.433-6.144c.318-.207.51-.561.51-.941V1.872A1.872 1.872 0 0 0 11.728 0h-.538c-.267 0-.525.095-.728.268L.306 8.921a.738.738 0 0 0-.164 1.033z"/><path d="M1.969 14.089c.004.007.007.015.015.019.801.85 2.235 1.052 3.5.359l9.433-6.144c.318-.207.51-.561.51-.941V6.007a1.872 1.872 0 0 0-1.872-1.872h-.537c-.267 0-.525.095-.728.268L2.133 13.056a.738.738 0 0 0-.164 1.033z"/><path d="M4.676 18.071a.035.035 0 0 0 .016.016c.839.709 2.201.745 3.309-.037l8.16-6.747c.275-.228.417-.579.376-.934l-.147-1.285a1.761 1.761 0 0 0-1.949-1.55l-.501.057c-.25.029-.481.145-.652.329L4.72 17.088a.694.694 0 0 0-.044.983z"/><path d="M6.445 21.015a.04.04 0 0 0 .014.015c.751.679 2.005.754 3.051.068l6.585-4.877a.975.975 0 0 0 .376-.849l-.095-1.189a1.623 1.623 0 0 0-1.748-1.488l-.464.037a.98.98 0 0 0-.611.282L6.516 20.11a.64.64 0 0 0-.071.905z"/></g></svg></g><g transform="translate(234.0 759.0) rotate(0.0 562.5 136.5) scale(2.0059733428431326 2.006718464015054)"><svg width="560.825" height="136.043" viewBox="0 0 560.825 136.043"><path d="M280.412 42.725c-216.585 0-270.489-9.619-272.678-10.029l2.017-10.813c.533.098 55.766 9.842 270.661 9.842 216.751 0 270.11-9.737 270.624-9.835l2.091 10.799c-2.108.409-54.145 10.036-272.715 10.036z" fill="#a9cfff"/><g fill="#93c3ff"><path d="M2.683 12.075h8.05v123.968h-8.05z"/><circle cx="6.708" cy="6.708" r="6.708"/><path d="M550.092 12.075h8.05v123.968h-8.05z"/><circle cx="554.117" cy="6.708" r="6.708"/></g></svg></g><g transform="translate(783.0 510.0) rotate(0.0 27.0 23.0) scale(2.499884264617379 2.4134312696747116)"><svg width="21.601" height="19.06" viewBox="0 0 21.601 19.06"><g fill="#2888ff"><path d="M0 0h3.812v19.06H0zm10.165 0h3.812v19.06h-3.812zm7.624 6.353h3.812v12.706h-3.812zm0-6.353h3.812v3.812h-3.812z"/><path d="M2.541 7.624h8.895v3.812H2.541z"/></g></svg></g></svg>