<svg xmlns="http://www.w3.org/2000/svg" viewBox="0 0 3000 3000" width="3000" height="3000"><g transform="translate(816.0 1857.6) rotate(0.0 -204.0 205.79999999999995) scale(-1.2903021773849244 1.2899788450991143)"><svg width="316.205" height="319.075" viewBox="0 0 316.205 319.075"><linearGradient id="a" gradientTransform="matrix(.9782 .2079 -.2079 .9782 1261.0021 898.5402)" gradientUnits="userSpaceOnUse" x1="-1388.059" x2="-1076.654" y1="-425.277" y2="-425.277"><stop offset=".325" stop-color="#3658c1"/><stop offset=".706" stop-color="#b0c3ff"/><stop offset=".938" stop-color="#3658c1"/></linearGradient><path d="m313.484 170.21-4.538 28.149c-5.293 32.83-22.765 63.863-51.916 86.722-64.712 50.745-162.478 41.979-218.368-19.58-30.724-33.84-42.4-76.584-35.941-116.646l4.538-28.149C.8 160.769 12.476 203.513 43.2 237.353c55.89 61.559 153.657 70.325 218.368 19.58 29.151-22.86 46.623-53.892 51.916-86.723" fill="url(#a)"/><path d="M159.527 319.005c-44.943 0-89.996-18.014-121.605-52.83C8.169 233.405-5.02 190.586 1.733 148.697l4.539-28.149a1 1 0 0 1 1.974.318c-6.657 41.285 6.353 83.498 35.693 115.815 55.457 61.081 152.808 69.814 217.012 19.465 27.794-21.796 46.097-52.355 51.54-86.055l.006-.04a1 1 0 0 1 1.974.318l-4.539 28.149c-5.516 34.214-24.085 65.235-52.286 87.351-28.41 22.279-63.232 33.136-98.119 33.136zM4.549 143.794l-.842 5.221c-6.656 41.285 6.354 83.498 35.694 115.815 55.455 61.08 152.808 69.814 217.011 19.465 27.805-21.803 46.11-52.379 51.546-86.095l.857-5.318c-8.69 25.191-24.765 47.69-46.63 64.837-65.012 50.979-163.58 42.146-219.727-19.694-24.254-26.715-37.502-60.106-37.909-94.231z" fill="#111"/><path d="M277.552 53.581c55.89 61.559 48.738 152.599-15.984 203.352-64.711 50.745-162.478 41.979-218.368-19.58C-12.699 175.784-5.547 84.744 59.164 33.999c64.722-50.753 162.489-41.987 218.388 19.582z" fill="#b0c3ff"/><g fill="#111"><path d="M164.066 290.855c-44.943 0-89.997-18.014-121.606-52.829-27.436-30.218-40.73-68.323-37.438-107.293C8.264 92.37 27.273 57.736 58.547 33.212c65.017-50.984 163.594-42.149 219.745 19.696 27.43 30.212 40.722 68.31 37.429 107.277-3.242 38.367-22.255 73.005-53.535 97.535-28.411 22.279-63.234 33.135-98.12 33.135zM156.684 2.063c-34.459 0-68.842 10.719-96.902 32.723-30.833 24.178-49.573 58.312-52.767 96.115-3.246 38.411 9.867 75.978 36.925 105.78 55.457 61.081 152.808 69.814 217.012 19.465 30.839-24.183 49.582-58.323 52.777-96.129 3.245-38.407-9.865-75.968-36.917-105.764-31.224-34.391-75.737-52.19-120.128-52.19z"/><path d="M184.362 61.928c-6.658-7.334-21.612-5.798-33.391 3.439s-15.924 22.678-9.266 30.012 21.603 5.788 33.382-3.449c11.779-9.238 15.933-22.669 9.275-30.002"/><path d="M153.805 100.975c-5.233 0-9.832-1.611-12.84-4.924-2.568-2.829-3.734-6.581-3.373-10.851.602-7.117 5.372-14.826 12.762-20.621 12.165-9.539 27.754-11.031 34.749-3.324 2.565 2.826 3.731 6.574 3.371 10.839-.602 7.114-5.375 14.823-12.77 20.622-6.929 5.434-14.97 8.258-21.899 8.259zm18.447-42.699c-6.459 0-14.069 2.706-20.664 7.878-6.961 5.458-11.448 12.641-12.004 19.215-.312 3.702.677 6.931 2.861 9.337 6.303 6.941 20.669 5.341 32.024-3.564 6.966-5.462 11.456-12.646 12.011-19.216.312-3.697-.676-6.922-2.858-9.326-2.644-2.913-6.707-4.324-11.37-4.324zm80.762 79.267c-6.658-7.334-21.603-5.788-33.382 3.449s-15.933 22.668-9.275 30.001c6.658 7.334 21.603 5.788 33.382-3.449s15.933-22.667 9.275-30.001"/><path d="M222.456 176.59c-5.233 0-9.832-1.61-12.84-4.924-2.565-2.826-3.731-6.574-3.371-10.839.602-7.114 5.375-14.823 12.77-20.622 12.163-9.539 27.749-11.035 34.739-3.334 2.565 2.826 3.731 6.574 3.371 10.839-.602 7.114-5.375 14.823-12.77 20.622-6.929 5.433-14.97 8.258-21.899 8.258zm18.461-42.692c-6.458 0-14.069 2.707-20.668 7.882-6.966 5.462-11.456 12.646-12.011 19.216-.312 3.697.676 6.922 2.858 9.326 6.302 6.94 20.665 5.343 32.024-3.564 6.966-5.462 11.456-12.646 12.011-19.216.312-3.697-.676-6.922-2.858-9.326-2.64-2.909-6.698-4.318-11.356-4.318zm-98.826 27.05c-21.765-23.952-52.922-35.762-82.125-33.381-4.241.346-7.289 3.849-6.811 7.807.175 1.505.835 2.863 1.82 3.948 1.604 1.767 4.069 2.811 6.697 2.597 23.831-1.971 50.197 7.754 68.735 28.192l.03.033c17.791 19.596 23.916 44.126 18.986 65.076-.537 2.29.171 4.591 1.706 6.282a8.034 8.034 0 0 0 4.193 2.417c4.16.934 8.274-1.436 9.19-5.306 5.998-25.599-1.54-54.645-22.421-77.665"/><path d="M157.135 245.121c-.67 0-1.351-.073-2.032-.227-1.849-.418-3.479-1.359-4.714-2.721-1.803-1.985-2.528-4.67-1.94-7.182 5.094-21.642-1.917-45.632-18.752-64.175-17.457-19.245-43.47-29.923-67.943-27.9-2.836.235-5.649-.86-7.519-2.922-1.163-1.28-1.88-2.837-2.073-4.504-.254-2.099.352-4.171 1.706-5.83 1.444-1.769 3.638-2.895 6.018-3.089 30.498-2.491 61.508 10.113 82.946 33.705 20.435 22.526 28.903 51.896 22.654 78.565-.888 3.752-4.419 6.28-8.351 6.28zM67.693 140.672c23.218 0 47.06 10.692 63.454 28.767 17.309 19.063 24.493 43.728 19.249 66.01-.444 1.898.093 3.859 1.474 5.38.959 1.057 2.229 1.788 3.673 2.114 3.618.813 7.208-1.232 7.997-4.561 6.098-26.026-2.197-54.723-22.188-76.763-21.024-23.135-51.419-35.497-81.304-33.056-1.868.152-3.512.991-4.631 2.36a5.713 5.713 0 0 0-1.269 4.33c.146 1.253.688 2.426 1.567 3.395 1.456 1.605 3.652 2.455 5.875 2.273a74.735 74.735 0 0 1 6.103-.249z"/></g></svg></g><g transform="translate(351.59999999999997 500.4) rotate(0.0 1281.0 923.3999999999999) scale(1.4027894813785444 1.4030225609492053)"><svg width="1826.361" height="1316.301" viewBox="0 0 1826.361 1316.301"><linearGradient id="b" gradientUnits="userSpaceOnUse" x1="465.103" x2="776.156" y1="206.807" y2="921.447"><stop offset="0" stop-color="#b0c3ff"/><stop offset=".449" stop-color="#3658c1"/><stop offset="1" stop-color="#111"/></linearGradient><linearGradient id="c" gradientUnits="userSpaceOnUse" x1="415.876" x2="1832.664" y1="1277.469" y2="998.728"><stop offset="0" stop-color="#111"/><stop offset=".353" stop-color="#3658c1"/><stop offset=".585" stop-color="#b0c3ff"/><stop offset=".863" stop-color="#3658c1"/><stop offset="1" stop-color="#111"/></linearGradient><path d="M900.962 5.251c31.5-13.367 71.54 5.837 89.454 42.907l302.21 625.378c17.9 37.049 6.9 77.931-24.6 91.3l-854.256 362.45c-31.486 13.36-71.55-5.857-89.454-42.906L22.106 459c-17.914-37.07-6.886-77.939 24.6-91.3z" fill="#b0c3ff"/><path d="M392.583 1132.516c-26.865 0-54.966-18.313-69.167-47.7L21.206 459.437c-9.787-20.253-11.387-42.542-4.388-61.153 5.478-14.567 15.954-25.755 29.5-31.5L900.571 4.331l.391.92-.391-.92c31.929-13.547 72.636 5.918 90.745 43.392l302.21 625.377c9.787 20.253 11.386 42.543 4.387 61.155-5.477 14.566-15.952 25.752-29.5 31.5l-854.252 362.451a54.994 54.994 0 0 1-21.578 4.31zm529.6-1130.5a53.078 53.078 0 0 0-20.83 4.158L47.1 368.624c-13.035 5.53-23.124 16.314-28.407 30.364-6.807 18.1-5.234 39.816 4.316 59.579l302.211 625.378c17.651 36.528 57.2 55.557 88.162 42.421l854.256-362.452c13.036-5.531 23.124-16.314 28.406-30.362 6.808-18.1 5.235-39.818-4.315-59.581L989.516 48.593c-13.862-28.685-41.229-46.579-67.334-46.579z" fill="#111"/><path d="M906.924 33.074 65.08 390.26c-22.02 9.343-29.74 37.934-17.208 63.867l297.358 615.337c12.522 25.912 40.545 39.337 62.565 29.994l841.845-357.187c22.038-9.35 29.741-37.933 17.219-63.845L969.5 63.089c-12.532-25.933-40.538-39.366-62.577-30.015" fill="#fff"/><g fill="#111"><path d="M392.974 1103.416c-18.9 0-38.664-12.864-48.644-33.517L46.972 454.562c-6.882-14.241-8-29.919-3.079-43.016a38.293 38.293 0 0 1 20.8-22.206L906.534 32.153c22.48-9.537 51.131 4.145 63.867 30.5l297.358 615.337c6.878 14.233 8 29.9 3.078 42.99a38.306 38.306 0 0 1-20.806 22.211l-841.845 357.187a38.77 38.77 0 0 1-15.212 3.038zM906.924 33.074l.391.92L65.47 391.181a36.313 36.313 0 0 0-19.7 21.069c-4.733 12.587-3.637 27.692 3.007 41.442l297.359 615.337c12.273 25.4 39.76 38.634 61.274 29.508l841.844-357.186a36.324 36.324 0 0 0 19.716-21.074c4.73-12.578 3.634-27.674-3.006-41.416L968.6 63.524c-12.279-25.411-39.772-38.658-61.285-29.53z"/><path d="M494.98 230.245c-5.317 2.256-7.176 9.157-4.143 15.434 3.024 6.256 9.785 9.5 15.1 7.244s7.194-9.165 4.17-15.421c-3.033-6.277-9.813-9.513-15.129-7.257"/><path d="M502.376 254.633c-4.851 0-9.9-3.265-12.439-8.519a14.1 14.1 0 0 1-.777-11 9.986 9.986 0 0 1 5.429-5.786c5.8-2.462 13.168 1.012 16.421 7.743a14.059 14.059 0 0 1 .764 10.971 9.878 9.878 0 0 1-9.4 6.595zm-3.793-24.108a8.2 8.2 0 0 0-3.213.64 7.9 7.9 0 0 0-4.338 4.649 12.1 12.1 0 0 0 .706 9.43c2.79 5.774 8.985 8.806 13.81 6.758a8.037 8.037 0 0 0 4.354-4.668 12.054 12.054 0 0 0-.693-9.4c-2.203-4.557-6.526-7.409-10.626-7.409z"/></g><path d="M1268.026 764.834 413.77 1127.286c-31.486 13.36-71.55-5.857-89.454-42.906L22.106 459c-16.491-34.124-8.455-71.47 17.494-87.609l-12.519 7.788C1.131 395.317-6.9 432.664 9.586 466.79L311.8 1092.168c17.9 37.049 57.968 56.265 89.454 42.906l854.256-362.452a51.748 51.748 0 0 0 7.112-3.688l12.52-7.788a51.7 51.7 0 0 1-7.116 3.688z" fill="url(#b)"/><path d="M380.064 1140.3c-26.867 0-54.965-18.311-69.168-47.7L8.686 467.225c-16.476-34.1-8.8-72.312 17.862-88.9l12.52-7.787a1 1 0 1 1 1.057 1.7c-25.79 16.042-33.149 53.154-17.119 86.327l302.211 625.378c17.651 36.528 57.2 55.557 88.163 42.42l854.255-362.451.242.57-.242-.57a51.14 51.14 0 0 0 6.975-3.617 1 1 0 0 1 1.056 1.7l-.055.034-12.465 7.754a53 53 0 0 1-7.249 3.759l-854.256 362.453a55.024 55.024 0 0 1-21.577 4.305zM28 379.783l-.393.245c-25.791 16.041-33.151 53.154-17.12 86.327L312.7 1091.733c17.652 36.527 57.2 55.555 88.163 42.421L1255.116 771.7a51.392 51.392 0 0 0 4.8-2.34l-845.755 358.846c-31.927 13.548-72.636-5.917-90.745-43.391L21.206 459.437C7.3 430.661 10.6 398.947 28 379.783z" fill="#111"/><path d="M1262.454 766.161c31.486-13.359 78.082-18.343 104.038-11.127l438.139 121.8c25.955 7.215 21.47 23.9-10.016 37.265l-854.256 362.453c-31.486 13.359-78.083 18.342-104.038 11.127l-438.139-121.8c-25.956-7.216-21.47-23.906 10.017-37.265z" fill="#b0c3ff"/><path d="M865.376 1291.97c-11.067 0-21.2-1.07-29.323-3.327l-438.138-121.8c-14.028-3.9-17.307-9.849-17.587-14.155-.537-8.246 9.479-17.355 27.48-24.993l854.256-362.452.39.92-.39-.92c31.621-13.417 78.587-18.429 104.7-11.171l438.139 121.8c14.027 3.9 17.306 9.849 17.586 14.154.537 8.246-9.479 17.356-27.48 24.994l-854.26 362.452c-21.786 9.244-50.859 14.498-75.373 14.498zm472.009-539.244c-24.214 0-52.972 5.2-74.54 14.355l-854.256 362.453c-16.918 7.178-26.737 15.785-26.266 23.023.338 5.171 6.065 9.56 16.127 12.358l438.139 121.8c25.736 7.154 72.112 2.181 103.379-11.085l854.256-362.452c16.918-7.178 26.737-15.785 26.265-23.023-.337-5.172-6.064-9.56-16.126-12.358L1366.224 756c-7.982-2.222-17.952-3.274-28.839-3.274z" fill="#111"/><path d="M1244.523 804.552 513.8 1114.588c-9.7 4.115-11.081 9.256-3.085 11.479L740.709 1190c8 2.222 22.333.683 32.032-3.432l730.718-310.036c9.7-4.115 11.077-9.244 3.082-11.467l-229.989-63.936c-8-2.223-22.33-.695-32.029 3.42" fill="#fff"/><path d="M749.625 1192.009a35.3 35.3 0 0 1-9.184-1.043l-229.989-63.936c-4.712-1.31-5.822-3.432-5.923-4.982-.188-2.893 2.967-5.869 8.885-8.38l730.718-310.037c9.854-4.18 24.517-5.734 32.688-3.463l229.989 63.932c4.713 1.311 5.823 3.431 5.924 4.979.188 2.889-2.967 5.862-8.884 8.373l-730.718 310.04a64.383 64.383 0 0 1-23.506 4.517zm517.935-390.9a62.057 62.057 0 0 0-22.647 4.366L514.2 1115.509c-5.8 2.462-7.767 4.925-7.67 6.409.082 1.259 1.709 2.419 4.463 3.185l229.989 63.937c7.791 2.166 21.865.645 31.373-3.389l730.718-310.036c5.8-2.462 7.765-4.921 7.669-6.4-.082-1.256-1.709-2.416-4.464-3.182L1276.284 802.1a33.535 33.535 0 0 0-8.724-.994z" fill="#111"/><path d="m1287.21 981.649-260.187 110.4c-11.207 4.755-12.8 10.694-3.549 13.267l133.051 36.987c9.238 2.569 25.82.8 37.027-3.96l260.187-110.395c11.208-4.755 12.805-10.694 3.566-13.263l-133.051-36.987c-9.254-2.573-25.836-.8-37.044 3.956" fill="#fff"/><path d="M1166.848 1144.464a40.687 40.687 0 0 1-10.591-1.2l-133.051-36.988c-5.368-1.492-6.63-3.881-6.743-5.624-.213-3.271 3.4-6.654 10.169-9.527l260.187-110.4c11.369-4.823 28.282-6.618 37.7-4l133.052 36.988c5.357 1.489 6.616 3.876 6.73 5.616.213 3.272-3.4 6.657-10.173 9.531l-260.187 110.394a74.222 74.222 0 0 1-27.093 5.21zm120.362-162.815.391.92-260.187 110.395c-6.778 2.876-9.07 5.789-8.955 7.556.1 1.549 1.977 2.908 5.282 3.827l133.051 36.988c9.04 2.512 25.355.755 36.369-3.918l260.187-110.394c6.781-2.877 9.074-5.792 8.959-7.56-.1-1.546-1.972-2.9-5.27-3.819l-133.051-36.988c-9.05-2.516-25.371-.76-36.385 3.913z" fill="#111"/><path d="m1825.255 913.621-3.855-24.315c1.21 7.631-7.964 16.807-26.785 24.794l-854.256 362.451c-31.486 13.36-78.083 18.344-104.038 11.128l-438.138-121.8c-10.441-2.9-15.956-7.337-16.77-12.472l3.855 24.314c.815 5.135 6.33 9.57 16.77 12.472l438.138 121.8c25.956 7.216 72.552 2.232 104.038-11.127l854.256-362.452c18.822-7.986 27.995-17.163 26.785-24.793z" fill="url(#c)"/><path d="M869.232 1316.285c-11.067 0-21.2-1.071-29.323-3.329l-438.139-121.8c-10.528-2.928-16.576-7.519-17.489-13.279l-3.847-24.258-.009-.056a1 1 0 1 1 1.976-.314c.77 4.859 6.47 9 16.05 11.666l438.137 121.8c25.736 7.155 72.111 2.183 103.38-11.084l854.256-362.452c17.571-7.455 27.361-16.322 26.188-23.716a1 1 0 0 1 1.976-.314l3.855 24.315c1.345 8.487-8.635 17.916-27.383 25.87l-854.255 362.452c-21.787 9.244-50.86 14.498-75.373 14.499zm-485.874-157 2.9 18.279c.77 4.859 6.47 9 16.05 11.665l438.138 121.8c25.736 7.155 72.112 2.181 103.38-11.085l854.255-362.451c17.571-7.456 27.361-16.322 26.188-23.716l-2.894-18.254c-3.059 6.646-12.216 13.491-26.368 19.5L940.75 1277.472c-31.624 13.418-78.591 18.428-104.7 11.17l-438.138-121.8c-6.75-1.878-11.66-4.442-14.554-7.557z" fill="#111"/></svg></g><g transform="translate(939.5999999999999 960.0) rotate(0.0 380.4 318.0) scale(1.4019931595707043 1.4046215582906905)"><svg width="542.656" height="452.791" viewBox="0 0 542.656 452.791"><path d="M40.06 146.129 1 162.747l21.49 248.191 19.369 39.982 102.176-43.419 21.456 44.29 35.021-14.9-21.477-44.332 19.656-8.362-19.369-39.982-19.656 8.363-41.53-85.728-35.021 14.899 41.53 85.728-63.992 27.225z" fill="#3658c1"/><path d="M165.492 452.791a.998.998 0 0 1-.9-.564l-21.041-43.434-101.3 43.047a1 1 0 0 1-1.291-.484l-19.369-39.981a.998.998 0 0 1-.096-.35L.004 162.833a1.001 1.001 0 0 1 .604-1.007l39.06-16.618a1.002 1.002 0 0 1 1.388.837l20.479 247.193 61.752-26.272-41.073-84.782a1 1 0 0 1 .508-1.356l35.021-14.899a1.002 1.002 0 0 1 1.292.484l41.116 84.871 18.779-7.99a1.002 1.002 0 0 1 1.292.484l19.369 39.981a1 1 0 0 1-.508 1.356l-18.689 7.951 21.019 43.387a1 1 0 0 1-.508 1.356l-35.021 14.899a.999.999 0 0 1-.391.08zm-21.457-46.29c.373 0 .729.209.9.564l21.041 43.433 33.178-14.116-21.019-43.387a1.002 1.002 0 0 1 .508-1.356l18.689-7.952-18.496-38.179-18.779 7.99a1.001 1.001 0 0 1-1.292-.484l-41.116-84.871-33.178 14.116 41.073 84.782a1.002 1.002 0 0 1-.508 1.356l-63.992 27.225a1.002 1.002 0 0 1-1.388-.837L39.177 147.592 2.058 163.384 23.47 410.669l18.874 38.959 101.3-43.047a.999.999 0 0 1 .391-.08z" fill="#111"/><path d="M292.82 349.373c-22.662 9.31-41.516-1.01-56.566-30.957l-61.248-126.428c-14.019-30.056-9.909-50.171 12.364-60.284 22.658-9.002 41.576 1.316 56.727 30.89l61.248 126.428c13.918 30.429 9.744 50.546-12.525 60.351M166.804 89.252c-18.507 7.874-30.897 21.984-37.122 42.337-7.069 20.891-4.072 45.09 9.013 72.637l63.724 131.539c13.445 27.217 30.891 45.217 52.316 53.959 20.447 9.005 40.009 9.7 58.65 2.101 18.929-8.385 31.506-22.778 37.722-43.153 6.388-20.6 3.185-44.686-9.616-72.227L277.89 145.16c-13.771-27.309-31.042-45.485-51.795-54.538-20.459-9.026-40.228-9.48-59.29-1.37" fill="#3658c1"/><path d="M287.212 398.019c-10.724 0-21.711-2.462-32.879-7.38-21.534-8.786-39.31-27.103-52.81-54.431l-63.728-131.546c-13.136-27.654-16.184-52.345-9.061-73.394 6.274-20.515 18.954-34.971 37.678-42.937 19.245-8.187 39.46-7.724 60.086 1.375 20.881 9.108 38.474 27.615 52.285 55.003l63.607 131.299c12.857 27.661 16.108 52.203 9.671 72.96-6.276 20.574-19.153 35.302-38.271 43.771-8.636 3.521-17.513 5.28-26.578 5.28zM166.804 89.252l.392.92c-18.155 7.724-30.455 21.757-36.558 41.709-6.959 20.568-3.941 44.754 8.961 71.916l63.721 131.532c13.274 26.871 30.701 44.863 51.794 53.469 20.12 8.86 39.589 9.564 57.895 2.101 18.536-8.211 31.042-22.521 37.142-42.519 6.287-20.272 3.068-44.332-9.566-71.514l-63.594-131.27c-13.588-26.946-30.849-45.139-51.295-54.058-20.103-8.869-39.784-9.33-58.499-1.366l-.392-.92zm110.579 264.421c-16.295 0-30.382-11.646-42.022-34.808l-61.254-126.441c-8.16-17.495-10.25-31.892-6.215-42.804 2.998-8.109 9.412-14.443 19.065-18.827 23.157-9.202 42.665 1.351 58.031 31.345l61.257 126.448c8.146 17.808 10.166 32.361 6.014 43.275-3.046 8.007-9.45 14.207-19.036 18.427l-.023.01c-5.48 2.251-10.755 3.375-15.817 3.375zm-74.962-224.062c-4.712 0-9.608 1.006-14.682 3.021-9.105 4.136-15.167 10.09-17.972 17.68-3.842 10.394-1.774 24.272 6.146 41.252l61.241 126.415c14.901 29.65 32.982 39.625 55.273 30.473 9.072-3.997 15.115-9.818 17.962-17.304 3.954-10.395 1.951-24.428-5.954-41.711l-61.238-126.408c-11.39-22.232-25.063-33.418-40.776-33.418zm90.399 219.761h.01z" fill="#111"/><path d="m381.185 1-39.041 16.61 21.472 248.198 19.369 39.982 102.194-43.426 21.456 44.29 35.021-14.9-21.477-44.332 19.656-8.362-19.369-39.982-19.656 8.362-41.53-85.727-35.022 14.899 41.531 85.728-63.992 27.225z" fill="#3658c1"/><path d="M506.636 307.654a.998.998 0 0 1-.9-.564l-21.042-43.434-101.317 43.054a1 1 0 0 1-1.291-.484l-19.369-39.981a.998.998 0 0 1-.096-.35L341.148 17.697a1.001 1.001 0 0 1 .604-1.007L380.793.079a1.002 1.002 0 0 1 1.388.838l20.498 247.186 61.752-26.272-41.073-84.782a1 1 0 0 1 .508-1.356l35.021-14.899a1.002 1.002 0 0 1 1.292.484l41.116 84.871 18.779-7.99a1.002 1.002 0 0 1 1.292.484l19.369 39.981a1 1 0 0 1-.508 1.356l-18.689 7.951 21.019 43.387a1 1 0 0 1-.508 1.356l-35.021 14.899a.999.999 0 0 1-.391.08zm-21.458-46.29c.373 0 .729.209.9.564l21.042 43.433 33.178-14.116-21.019-43.387a1.002 1.002 0 0 1 .508-1.356l18.689-7.951-18.496-38.179-18.779 7.99a1 1 0 0 1-1.292-.484l-41.116-84.871-33.178 14.116 41.073 84.782a1 1 0 0 1-.508 1.356l-63.993 27.225a1.001 1.001 0 0 1-1.388-.837L380.303 2.462l-37.1 15.784 21.395 247.292 18.874 38.959 101.317-43.054a.999.999 0 0 1 .391-.08z" fill="#111"/></svg></g><g transform="translate(1917.6 807.6) rotate(0.0 340.20000000000005 347.99999999999994) scale(1.4003255901063418 1.4004954051275031)"><svg width="485.887" height="496.967" viewBox="0 0 485.887 496.967"><path d="M484.684 470.452 424.355 44.66a19.418 19.418 0 0 0-1.563-5.388l-12.198-26.643a19.418 19.418 0 0 1 1.563 5.388l60.329 425.792c2.274 16.023-14.958 29.576-31.016 24.392L14.936 330.522c-5.896-1.903-10.009-5.811-12.17-10.531l12.198 26.643c2.161 4.72 6.274 8.628 12.17 10.531l426.533 137.679c16.059 5.183 33.291-8.369 31.016-24.392z" fill="#3658c1"/><path d="M460.86 496.976c-2.518 0-5.043-.388-7.5-1.181L26.827 358.116c-5.831-1.882-10.366-5.812-12.772-11.066L1.857 320.406a1 1 0 0 1 1.819-.833c2.169 4.738 6.278 8.288 11.568 9.996l426.534 137.679c7.527 2.431 15.783.716 22.082-4.586 5.757-4.847 8.611-11.842 7.637-18.713L411.166 18.156a18.437 18.437 0 0 0-1.47-5.087l-.012-.025a1.002 1.002 0 0 1 .493-1.326.998.998 0 0 1 1.325.493l12.197 26.644a20.46 20.46 0 0 1 1.645 5.665l60.33 425.791c1.072 7.559-2.041 15.231-8.329 20.525-4.781 4.025-10.609 6.141-16.485 6.141zM7.302 327.495l8.572 18.722c2.169 4.738 6.278 8.288 11.568 9.996l426.534 137.679c7.526 2.43 15.783.716 22.082-4.586 5.757-4.847 8.611-11.843 7.637-18.714L423.365 44.8a18.473 18.473 0 0 0-1.482-5.112l-8.175-17.857 59.77 421.838c1.072 7.558-2.042 15.23-8.329 20.524-6.83 5.749-15.793 7.603-23.985 4.959L14.63 331.473c-2.763-.892-5.235-2.244-7.328-3.978z" fill="#111"/><path d="M472.486 443.808c2.274 16.023-14.958 29.576-31.016 24.392L14.936 330.522c-16.047-5.18-18.889-25.212-5.104-36.051L376.035 6.356c6.893-5.421 15.357-6.51 22.382-4.243 7.024 2.267 12.609 7.892 13.74 15.902l60.329 425.792z" fill="#fff"/><path d="M448.662 470.333c-2.518 0-5.043-.388-7.5-1.181L14.63 331.473c-7.606-2.455-12.953-8.425-14.303-15.969-1.457-8.141 1.865-16.298 8.887-21.82L375.417 5.57c6.734-5.295 15.444-6.945 23.308-4.408 7.913 2.555 13.305 8.803 14.422 16.714l60.33 425.792c1.072 7.558-2.041 15.23-8.328 20.524-4.781 4.025-10.61 6.142-16.486 6.142zM391.274 1.993c-5.164 0-10.325 1.771-14.62 5.149L10.45 295.256c-6.431 5.057-9.479 12.495-8.155 19.896 1.218 6.804 6.058 12.194 12.948 14.418l426.534 137.679c7.527 2.43 15.784.716 22.083-4.587 5.757-4.847 8.611-11.842 7.636-18.713s-60.33-425.793-60.33-425.793c-1.007-7.136-5.888-12.777-13.057-15.091a22.237 22.237 0 0 0-6.836-1.072z" fill="#111"/><path d="m372.08 124.481-73.498 160.776-38.094-12.296 65.737-163.281z" fill="#3658c1"/><path d="M298.582 286.257c-.102 0-.205-.016-.308-.048l-38.094-12.296a.998.998 0 0 1-.62-1.325l65.736-163.281a.998.998 0 0 1 1.235-.578l45.854 14.801a1 1 0 0 1 .601 1.367l-73.497 160.776a1 1 0 0 1-.909.584zm-36.766-13.918 36.226 11.693 72.66-158.944-43.897-14.17-64.988 161.421z" fill="#111"/><path d="m281.578 323.673-15.773 36.81-38.093-12.296 15.772-36.81z" fill="#3658c1"/><path d="M265.806 361.483c-.102 0-.205-.016-.308-.048l-38.094-12.296a1 1 0 0 1-.612-1.346l15.771-36.811a.998.998 0 0 1 1.227-.558l38.094 12.296a1 1 0 0 1 .612 1.346l-15.771 36.811a1 1 0 0 1-.919.606zm-36.742-13.911 36.182 11.679 14.98-34.964-36.182-11.679z" fill="#111"/></svg></g><g transform="translate(430.8 582.0) rotate(0.0 648.6 294.0) scale(1.404476742549409 1.405793879058692)"><svg width="923.618" height="418.269" viewBox="0 0 923.618 418.269"><path d="M802.871 26.238c-4.329 1.837-5.839 7.444-3.378 12.537s7.966 7.75 12.294 5.914c4.329-1.837 5.847-7.473 3.386-12.567-2.461-5.093-7.974-7.721-12.302-5.884" fill="#b0c3ff"/><path d="M808.898 46.265c-4.02 0-8.203-2.704-10.305-7.055-1.447-2.995-1.679-6.303-.636-9.077.836-2.223 2.442-3.933 4.523-4.816 4.81-2.042 10.91.816 13.593 6.37 1.448 2.996 1.678 6.312.63 9.097-.838 2.229-2.446 3.943-4.526 4.825a8.356 8.356 0 0 1-3.28.656zm-3.085-19.615c-.875 0-1.737.164-2.551.509-1.595.677-2.782 1.949-3.433 3.679-.852 2.264-.646 4.999.564 7.502 2.233 4.62 7.169 7.056 11.003 5.428 1.594-.676 2.782-1.952 3.435-3.688.855-2.275.652-5.017-.559-7.522-1.756-3.633-5.198-5.908-8.46-5.908z" fill="#111"/><path d="M831.932 13.908c-4.329 1.837-5.858 7.451-3.397 12.545s7.984 7.742 12.313 5.906 5.829-7.465 3.367-12.559c-2.461-5.093-7.955-7.728-12.284-5.892" fill="#b0c3ff"/><path d="M837.946 33.937c-4.025 0-8.209-2.701-10.311-7.049-1.444-2.988-1.673-6.293-.629-9.069.839-2.23 2.45-3.947 4.536-4.832 4.802-2.036 10.891.824 13.575 6.378 1.451 3.003 1.683 6.321.636 9.104-.835 2.221-2.438 3.929-4.514 4.81a8.386 8.386 0 0 1-3.293.658zm-5.623-19.109c-1.6.679-2.792 1.957-3.445 3.695-.852 2.266-.648 4.998.558 7.495 2.232 4.62 7.177 7.051 11.022 5.42 1.589-.674 2.772-1.944 3.423-3.673.855-2.273.649-5.018-.565-7.53-2.227-4.608-7.157-7.034-10.993-5.406z" fill="#111"/><path d="M860.977 1.585c-4.329 1.837-5.84 7.444-3.379 12.537s7.967 7.75 12.295 5.913c4.329-1.837 5.829-7.465 3.367-12.559-2.461-5.093-7.955-7.728-12.284-5.892" fill="#b0c3ff"/><g fill="#111"><path d="M867.002 21.611c-4.02 0-8.203-2.704-10.305-7.054-1.447-2.994-1.679-6.302-.636-9.076.836-2.223 2.443-3.934 4.524-4.817 4.801-2.036 10.891.824 13.575 6.377 1.451 3.003 1.683 6.321.636 9.104-.835 2.221-2.438 3.93-4.514 4.81a8.358 8.358 0 0 1-3.281.656zm-3.097-19.612c-.871 0-1.729.163-2.538.506-1.596.677-2.783 1.949-3.434 3.68-.851 2.264-.646 4.998.564 7.502 2.232 4.62 7.169 7.056 11.004 5.428 1.589-.674 2.773-1.945 3.423-3.673.854-2.273.648-5.018-.565-7.53-1.757-3.635-5.198-5.913-8.455-5.913zM1.001 418.269a1.001 1.001 0 0 1-.391-1.921L922.228 25.315a1 1 0 1 1 .781 1.841L1.391 418.189a.997.997 0 0 1-.39.08z"/></g></svg></g><g transform="translate(108.0 817.1999999999999) rotate(-29.231072601057882 243.59999999999997 243.59999999999997) scale(1.4540071745345802 1.4524380209637604)"><svg width="335.074" height="335.436" viewBox="0 0 335.074 335.436"><path d="m330.447 171.334-37.403 8.036-16.419 17.921 37.403-8.036c1.047-.173 1.906-.644 2.524-1.319l16.419-17.921c-.619.675-1.477 1.145-2.524 1.319z" fill="#3658c1"/><path d="M276.624 198.291a1.002 1.002 0 0 1-.738-1.676l16.419-17.921a.994.994 0 0 1 .527-.302l37.403-8.036.046-.009c.79-.131 1.463-.478 1.947-1.004l.004-.004a1 1 0 0 1 1.475 1.351l-16.419 17.921c-.789.862-1.861 1.425-3.098 1.63l-37.357 8.027a.984.984 0 0 1-.209.023zm16.941-18.011-14.085 15.374 34.338-7.377c.838-.14 1.513-.489 1.997-1.017l13.415-14.642z" fill="#111"/><path d="M106.016 9.123c-.39-1.707.002-3.235.951-4.27l-16.42 17.922c-.948 1.035-1.34 2.562-.951 4.27l7.373 40.408 16.419-17.92z" fill="#3658c1"/><path d="M96.97 68.453a1 1 0 0 1-.984-.82l-7.373-40.408c-.441-1.927-.008-3.811 1.197-5.125l16.419-17.921a1 1 0 1 1 1.475 1.351c-.755.823-1.014 2.052-.713 3.371l.009.043 7.373 40.409c.056.308-.035.624-.246.855l-16.419 17.92c-.193.21-.462.325-.738.325zm7.939-59.874L91.285 23.45c-.754.823-1.014 2.052-.713 3.372l7.021 38.471 14.724-16.07-7.28-39.899a6.83 6.83 0 0 1-.128-.745z" fill="#111"/><path d="m243.966 221.253-16.419 17.921c11.982-13.078 17.924-31.745 15.117-53.296-5.882-45.165-47.965-85.894-93.993-90.969-24.065-2.653-44.445 4.965-57.573 19.295l16.419-17.921c13.129-14.33 33.508-21.948 57.573-19.295 46.028 5.075 88.111 45.803 93.993 90.969 2.807 21.551-3.135 40.218-15.117 53.296" fill="#3658c1"/><path d="M227.547 240.174a1 1 0 0 1-.737-1.676c12.252-13.373 17.53-32.014 14.863-52.491-5.817-44.664-47.586-85.085-93.111-90.104-22.705-2.503-43.383 4.413-56.726 18.977a1 1 0 0 1-1.475-1.351l16.419-17.921c13.778-15.038 35.07-22.188 58.42-19.613 46.385 5.114 88.946 46.311 94.875 91.834 2.745 21.072-2.714 40.285-15.372 54.101l-16.419 17.921a.998.998 0 0 1-.737.323zM139.513 93.399c3.044 0 6.137.17 9.268.516 46.385 5.114 88.946 46.311 94.875 91.833 1.989 15.273-.332 29.57-6.579 41.543l6.151-6.714.737.676-.737-.676c12.251-13.373 17.53-32.014 14.863-52.491-5.817-44.664-47.586-85.085-93.111-90.104-22.708-2.503-43.384 4.413-56.726 18.977l-6.219 6.788c10.588-6.757 23.505-10.348 37.478-10.348z" fill="#111"/><path d="m309.469 275.485-16.419 17.921c-.967 1.056-2.445 1.52-4.031 1.346-.983-.108-2.007-.462-2.976-1.074l16.419-17.921c.97.611 1.994.965 2.976 1.074 1.587.174 3.064-.29 4.031-1.346" fill="#3658c1"/><path d="M289.666 295.787c-.249 0-.5-.014-.755-.042-1.159-.127-2.335-.55-3.4-1.221a1 1 0 0 1-.204-1.521l16.419-17.921a1.001 1.001 0 0 1 1.271-.17c.81.511 1.692.831 2.553.926 1.293.142 2.453-.232 3.182-1.026l.001-.001a1 1 0 0 1 1.475 1.351l-.004.005-16.415 17.916c-1.012 1.102-2.486 1.704-4.123 1.704zm-2-2.4a5.72 5.72 0 0 0 1.463.371c1.294.142 2.455-.231 3.184-1.027l13.62-14.865a6.93 6.93 0 0 1-.604-.04 7.89 7.89 0 0 1-2.666-.807z" fill="#111"/><path d="m302.462 275.757-16.418 17.921-38.899-22.374 16.419-17.921z" fill="#3658c1"/><path d="M286.043 294.678a.995.995 0 0 1-.498-.133l-38.898-22.374a1.002 1.002 0 0 1-.239-1.543l16.419-17.921a1 1 0 0 1 1.236-.191l38.898 22.374a1.002 1.002 0 0 1 .239 1.543l-16.419 17.921a1 1 0 0 1-.738.324zm-37.317-23.619 37.122 21.352 15.034-16.41-37.122-21.352z" fill="#111"/><path d="M25.629 59.954a3.987 3.987 0 0 0-.459.608L8.747 87.048l16.419-17.921 16.423-26.486a3.97 3.97 0 0 1 .459-.608z" fill="#3658c1"/><path d="M8.747 88.048a1 1 0 0 1-.849-1.527L24.32 60.035c.165-.268.357-.523.571-.756l16.414-17.915.005-.006.001-.001a1 1 0 1 1 1.474 1.352l-.004.005c-.126.138-.24.29-.341.452L26.016 69.654a.965.965 0 0 1-.113.148L9.484 87.724a.998.998 0 0 1-.737.324zm26.567-37.184-8.948 9.766v.001a3.018 3.018 0 0 0-.344.455L15.228 78.494l9.137-9.973zm-9.685 9.09h.01z" fill="#111"/><path d="m263.564 253.383-16.419 17.921c-7.421 6.236-15.996 11.155-25.473 14.6l16.419-17.921c9.477-3.445 18.052-8.364 25.473-14.6" fill="#3658c1"/><path d="M221.673 286.904a1 1 0 0 1-.738-1.676l16.418-17.921a1 1 0 0 1 .396-.264c9.36-3.403 17.829-8.257 25.172-14.427a1 1 0 0 1 1.38 1.441l-16.419 17.921a1 1 0 0 1-.094.09c-7.521 6.32-16.193 11.291-25.774 14.774a.946.946 0 0 1-.341.062zm16.99-18.065-13.344 14.565c7.768-3.26 14.861-7.562 21.132-12.824l9.418-10.279c-5.318 3.432-11.075 6.29-17.206 8.538z" fill="#111"/><path d="M61.259 107.186 44.84 125.107 10.844 94.805l16.419-17.921z" fill="#3658c1"/><path d="M44.84 126.107a.999.999 0 0 1-.665-.253L10.179 95.551a.997.997 0 0 1-.072-1.422l16.419-17.921a1 1 0 0 1 1.403-.071l33.996 30.302a.997.997 0 0 1 .072 1.422l-16.419 17.921a.997.997 0 0 1-.738.325zM12.266 94.733l32.503 28.972 15.068-16.446-32.503-28.972z" fill="#111"/><path d="M27.263 76.884 10.844 94.805c-2.576-2.13-3.497-5.512-2.097-7.757l16.419-17.921c-1.4 2.245-.479 5.627 2.097 7.757" fill="#3658c1"/><path d="M10.844 95.805a.995.995 0 0 1-.637-.229c-2.993-2.474-3.985-6.368-2.308-9.056a.986.986 0 0 1 .111-.146l16.419-17.921a1 1 0 0 1 1.585 1.204c-1.13 1.812-.302 4.648 1.886 6.457a1.003 1.003 0 0 1 .1 1.447L11.581 95.48a.995.995 0 0 1-.737.325zm-1.293-8.154c-.941 1.606-.395 3.972 1.24 5.731l15.063-16.441c-1.298-1.344-2.09-2.976-2.296-4.579z" fill="#111"/><path d="m58.44 138.167-16.419 17.921c-.651-10.776.288-21.212 2.819-30.98l16.419-17.921c-2.531 9.767-3.47 20.204-2.819 30.98" fill="#3658c1"/><path d="M42.02 157.087a1 1 0 0 1-.998-.939c-.659-10.92.299-21.448 2.85-31.291a1 1 0 0 1 .231-.425l16.419-17.921a1 1 0 0 1 1.706.926c-2.498 9.64-3.436 19.959-2.789 30.669.016.271-.078.536-.261.736l-16.419 17.921c-.194.21-.463.324-.739.324zm3.726-31.488c-2.268 8.854-3.223 18.277-2.845 28.048l14.516-15.844c-.532-9.392.135-18.491 1.985-27.109z" fill="#111"/><path d="m182.671 271.982-16.419 17.921c-11.162-1.948-22.357-5.438-33.239-10.37l16.419-17.921c10.882 4.932 22.077 8.422 33.239 10.37" fill="#3658c1"/><path d="M166.253 290.903a1 1 0 0 1-.172-.015c-11.262-1.966-22.526-5.48-33.48-10.444a.998.998 0 0 1-.325-1.586l16.419-17.921a.999.999 0 0 1 1.15-.235c10.8 4.895 21.902 8.359 32.998 10.296a1.001 1.001 0 0 1 .566 1.661L166.99 290.58c-.191.207-.46.323-.737.323zm-31.566-11.716c10.227 4.52 20.714 7.76 31.199 9.636l14.824-16.181c-10.439-1.974-20.865-5.273-31.03-9.821z" fill="#111"/><path d="m241.563 314.051-34.14 2.449-16.419 17.921 34.14-2.449c1.236-.091 2.256-.591 2.966-1.366l16.419-17.921c-.711.776-1.73 1.275-2.966 1.366z" fill="#3658c1"/><path d="M191.004 335.422a1 1 0 0 1-.737-1.676l16.418-17.921a1 1 0 0 1 .666-.322l34.14-2.449c.942-.07 1.736-.429 2.296-1.04l.004-.004a1 1 0 0 1 1.475 1.351l-.004.005-16.415 17.917c-.912.996-2.167 1.579-3.629 1.687l-34.142 2.449a.885.885 0 0 1-.072.003zm16.887-17.953-14.453 15.775 31.633-2.27c.942-.07 1.738-.43 2.3-1.043l13.591-14.835zm33.672-3.418h.01z" fill="#111"/><path d="m200.232 311.668-16.419 17.921-17.56-39.686 16.418-17.921z" fill="#3658c1"/><path d="M183.813 330.589a1.001 1.001 0 0 1-.915-.595l-17.561-39.686a1 1 0 0 1 .177-1.08l16.419-17.921a1 1 0 0 1 1.652.271l17.56 39.686a1 1 0 0 1-.177 1.08l-16.418 17.921a.999.999 0 0 1-.737.324zm-16.381-40.493 16.677 37.689 14.943-16.311-16.677-37.689z" fill="#111"/><path d="m207.423 316.501-16.419 17.921a5.662 5.662 0 0 1-1.049-.021c-2.569-.283-5.106-2.225-6.142-4.812l16.419-17.921c1.036 2.587 3.573 4.528 6.142 4.812.35.038.701.046 1.049.021" fill="#3658c1"/><path d="M190.599 335.436c-.249 0-.501-.014-.753-.042-2.948-.325-5.81-2.559-6.961-5.434a.998.998 0 0 1 .191-1.047l16.418-17.921a1.002 1.002 0 0 1 1.666.304c.889 2.219 3.078 3.942 5.324 4.19.294.032.584.039.866.018a1 1 0 0 1 .81 1.673l-16.419 17.921c-.172.188-.41.303-.664.322a7.53 7.53 0 0 1-.478.016zm-5.601-5.66c1.008 1.945 3.014 3.404 5.067 3.631.164.018.326.028.486.029l14.777-16.129c-2.123-.523-4.108-1.99-5.326-3.908z" fill="#111"/><path d="m97.716 224.25-16.419 17.921c-8.382-9.003-15.64-18.846-21.571-29.24l16.419-17.921c5.93 10.394 13.189 20.237 21.571 29.24" fill="#3658c1"/><path d="M81.297 243.171a.997.997 0 0 1-.732-.319c-8.43-9.054-15.733-18.955-21.707-29.426a1.001 1.001 0 0 1 .131-1.171l16.419-17.921a1.002 1.002 0 0 1 1.606.18c5.897 10.337 13.109 20.112 21.434 29.054a1 1 0 0 1 .005 1.357l-16.419 17.921a.997.997 0 0 1-.733.324l-.004.001zm-20.339-30.103c5.654 9.799 12.489 19.085 20.336 27.627l15.063-16.441c-7.848-8.526-14.703-17.789-20.396-27.562z" fill="#111"/><path d="m76.145 195.01-16.419 17.921-40.665-2.412 16.418-17.921z" fill="#3658c1"/><path d="M59.726 213.931c-.02 0-.039 0-.059-.002l-40.666-2.412a1 1 0 0 1-.678-1.674l16.419-17.921a.987.987 0 0 1 .797-.323l40.666 2.412a1 1 0 0 1 .678 1.674l-16.419 17.921a.999.999 0 0 1-.738.325zm-38.509-4.286 38.094 2.26 14.678-16.021-38.093-2.26z" fill="#111"/><path d="M17.689 152.271c-.573-1.873-.208-3.618.842-4.764L2.113 165.428c-1.05 1.147-1.415 2.891-.842 4.764l10.911 34.995 16.419-17.92z" fill="#3658c1"/><path d="M12.181 206.187a1.004 1.004 0 0 1-.955-.702L.316 170.49c-.658-2.152-.262-4.295 1.059-5.738l16.419-17.921a1 1 0 1 1 1.475 1.351l-.003.003c-.835.914-1.068 2.33-.622 3.789l10.91 34.994a1 1 0 0 1-.217.973l-16.419 17.92a.995.995 0 0 1-.737.326zm4.279-54.938L2.85 166.104c-.838.915-1.071 2.334-.623 3.796l10.392 33.33 14.856-16.214-10.739-34.447-.001-.005a6.94 6.94 0 0 1-.275-1.315z" fill="#111"/><path d="M35.479 192.598 19.06 210.519c-3.329-.34-6.009-2.549-6.88-5.331l16.42-17.921c.87 2.782 3.551 4.992 6.879 5.331" fill="#3658c1"/><path d="M19.06 211.519a1.16 1.16 0 0 1-.102-.005c-3.612-.369-6.719-2.791-7.732-6.028a1 1 0 0 1 .217-.974l16.419-17.921a1.002 1.002 0 0 1 1.692.376c.777 2.484 3.199 4.347 6.027 4.635a1 1 0 0 1 .636 1.67l-16.419 17.921a.996.996 0 0 1-.738.326zm-5.732-6.103c.877 2.079 2.931 3.636 5.348 4.043l14.876-16.237c-2.25-.693-4.156-2.196-5.252-4.147z" fill="#111"/><path d="m125.661 288.753-16.419 17.921c-.972 1.061-2.444 1.513-4.013 1.34-1.138-.125-2.328-.58-3.415-1.368l16.419-17.921c1.087.788 2.277 1.243 3.415 1.368 1.569.173 3.04-.279 4.013-1.34" fill="#3658c1"/><path d="M105.872 309.05c-.248 0-.499-.014-.752-.042-1.351-.149-2.697-.686-3.893-1.553a1 1 0 0 1-.15-1.485l16.419-17.921a1 1 0 0 1 1.324-.134c.915.664 1.93 1.073 2.937 1.184 1.284.141 2.437-.229 3.162-1.018l.004-.004a1 1 0 1 1 1.475 1.351c-.373.407 0 0-.001.001l-16.418 17.92c-1.007 1.1-2.476 1.701-4.107 1.701zm-2.501-2.623a5.855 5.855 0 0 0 1.967.594c1.286.142 2.441-.231 3.166-1.022l13.625-14.871a7.01 7.01 0 0 1-.591-.04 7.99 7.99 0 0 1-3.14-1.062z" fill="#111"/><path d="m83.68 257.992-16.419 17.921 14.036-33.742 16.419-17.921z" fill="#3658c1"/><path d="M67.26 276.913a1 1 0 0 1-.922-1.384l14.036-33.742c.045-.107.108-.206.186-.292l16.419-17.921a.999.999 0 0 1 1.66 1.06l-14.036 33.742a1.029 1.029 0 0 1-.186.292l-16.419 17.921a.999.999 0 0 1-.738.324zm14.893-34.196-11.781 28.319 12.451-13.59 11.781-28.319zm1.527 15.275h.01z" fill="#111"/><path d="m118.233 288.725-16.419 17.921-31.834-23.01 16.419-17.921z" fill="#3658c1"/><path d="M101.814 307.646a.997.997 0 0 1-.585-.189l-31.834-23.01a1 1 0 0 1-.151-1.486l16.419-17.921a1 1 0 0 1 1.323-.135l31.834 23.01a1 1 0 0 1 .151 1.486l-16.419 17.921a1.004 1.004 0 0 1-.738.324zm-30.338-24.163 30.202 21.831 15.059-16.436-30.202-21.831z" fill="#111"/><path d="M86.399 265.715 69.98 283.636c-2.7-1.959-3.889-5.309-2.719-7.723l16.419-17.921c-1.17 2.414.019 5.764 2.719 7.723" fill="#3658c1"/><path d="M69.979 284.636a.994.994 0 0 1-.587-.191c-3.112-2.257-4.415-6.113-3.032-8.968a.997.997 0 0 1 .163-.24l16.419-17.921a1 1 0 0 1 1.637 1.111c-.951 1.963.106 4.808 2.406 6.477a1 1 0 0 1 .15 1.485L70.716 284.31a.993.993 0 0 1-.737.326zm-1.875-8.163c-.758 1.747.005 4.134 1.779 5.789l15.067-16.445c-1.47-1.361-2.398-3.106-2.65-4.838z" fill="#111"/><path d="M333.794 165.264c.931 2.973-.524 5.602-3.347 6.069l-37.403 8.036c.672 10.778-.288 21.211-2.798 30.982l33.993 30.281c2.579 2.15 3.476 5.51 2.078 7.775l-16.402 26.489c-.915 1.467-2.622 2.137-4.476 1.933-.983-.108-2.007-.462-2.976-1.074l-38.898-22.374c-7.421 6.236-15.996 11.155-25.473 14.6l7.395 40.41c.681 2.987-1.025 5.444-3.923 5.658l-34.14 2.449a5.662 5.662 0 0 1-1.049-.021c-2.569-.283-5.106-2.225-6.142-4.812l-17.56-39.686c-11.162-1.948-22.357-5.438-33.239-10.37l-23.559 26.889c-.962 1.241-2.537 1.778-4.225 1.592-1.138-.125-2.328-.58-3.415-1.368l-31.834-23.01c-2.7-1.959-3.889-5.309-2.719-7.723l14.036-33.742c-8.382-9.003-15.64-18.846-21.571-29.24l-40.666-2.412c-3.329-.34-6.009-2.549-6.88-5.331L17.69 152.269c-.909-2.971.543-5.62 3.347-6.07l37.403-8.035c-.651-10.776.288-21.212 2.819-30.98l-33.996-30.3c-2.576-2.13-3.497-5.512-2.097-7.757l16.423-26.486c.914-1.482 2.614-2.149 4.47-1.944.981.108 2.006.46 2.98 1.064l38.88 22.393c7.418-6.256 15.993-11.175 25.471-14.621l-7.374-40.409c-.682-2.987 1.028-5.423 3.926-5.637l34.116-2.472a5.751 5.751 0 0 1 1.049.02c2.573.284 5.125 2.23 6.145 4.833l17.558 39.665c11.162 1.948 22.36 5.459 33.239 10.37l23.559-26.889c.958-1.236 2.525-1.767 4.206-1.582 1.145.126 2.343.585 3.437 1.378l31.853 22.991c2.7 1.958 3.891 5.33 2.719 7.723L253.79 93.287c8.358 8.98 15.619 18.844 21.549 29.238l40.663 2.392c3.35.342 6.03 2.551 6.901 5.333zm-147.401 75.284c46.028 5.075 78.573-27.426 72.691-72.591s-47.965-85.894-93.993-90.969S86.518 104.414 92.4 149.58c5.882 45.164 47.965 85.893 93.993 90.968" fill="#FFF"/><path d="M207.019 317.515a6.86 6.86 0 0 1-.754-.042c-2.947-.325-5.81-2.559-6.961-5.434l-17.331-39.165c-10.855-1.941-21.706-5.319-32.276-10.046l-23.071 26.332c-1.114 1.44-2.98 2.159-5.087 1.927-1.351-.149-2.697-.686-3.892-1.553l-31.833-23.009c-3.114-2.259-4.417-6.114-3.033-8.969l13.766-33.097c-8.119-8.79-15.18-18.367-21-28.483l-40.126-2.38c-3.654-.372-6.762-2.795-7.775-6.031l-10.911-34.996c-.556-1.817-.378-3.591.5-5 .791-1.269 2.085-2.105 3.644-2.355l36.515-7.846c-.548-10.395.375-20.427 2.747-29.841L26.598 77.631c-2.965-2.45-3.957-6.344-2.28-9.032L40.74 42.115c1.088-1.764 3.12-2.667 5.429-2.411 1.152.127 2.327.544 3.397 1.208L87.814 62.94c7.17-5.942 15.386-10.666 24.442-14.053l-7.223-39.582c-.397-1.734-.094-3.425.863-4.719.907-1.228 2.318-1.972 3.973-2.094L143.986.02c.403-.03.818-.022 1.231.024 2.97.327 5.835 2.573 6.966 5.462l17.326 39.138c10.786 1.929 21.638 5.308 32.275 10.047l23.073-26.333c1.107-1.432 2.969-2.149 5.067-1.917 1.358.15 2.711.69 3.915 1.563l31.851 22.99c3.125 2.267 4.427 6.124 3.032 8.973L254.96 93.081c8.09 8.762 15.144 18.338 20.978 28.48l40.123 2.36c3.668.373 6.784 2.796 7.797 6.033l10.893 35.015c.562 1.798.396 3.56-.467 4.963-.788 1.28-2.092 2.129-3.672 2.39l-36.519 7.847c.562 10.313-.355 20.345-2.728 29.842l33.54 29.878c2.943 2.453 3.927 6.351 2.265 9.047l-16.403 26.49c-1.097 1.759-3.13 2.655-5.436 2.401-1.16-.128-2.335-.55-3.4-1.222l-38.26-22.006c-7.187 5.935-15.402 10.651-24.443 14.034l7.244 39.583c.398 1.741.092 3.44-.87 4.741-.908 1.229-2.316 1.972-3.964 2.094l-34.142 2.449a7.55 7.55 0 0 1-.477.015zm-57.586-56.903c.139 0 .28.029.413.089 10.8 4.895 21.902 8.359 32.998 10.296a1 1 0 0 1 .743.581l17.56 39.686c.903 2.252 3.092 3.975 5.337 4.222.294.032.584.039.866.018l34.141-2.449c1.056-.078 1.945-.535 2.501-1.287.61-.825.794-1.944.519-3.15l-7.404-40.453c-.087-.48.184-.953.642-1.12 9.36-3.403 17.829-8.257 25.172-14.427a1 1 0 0 1 1.142-.101l38.898 22.374c.845.531 1.727.852 2.587.947 1.521.168 2.84-.381 3.519-1.469l16.4-26.486c1.124-1.822.303-4.669-1.869-6.48L289.58 211.1a1.001 1.001 0 0 1-.304-.995c2.5-9.731 3.431-20.05 2.769-30.671a1 1 0 0 1 .788-1.04l37.403-8.036c1.062-.177 1.855-.684 2.342-1.474.555-.903.648-2.081.261-3.319l-.001-.001-10.892-35.014c-.776-2.482-3.207-4.346-6.047-4.635l-40.62-2.388a.999.999 0 0 1-.81-.503c-5.914-10.365-13.118-20.14-21.413-29.052a.999.999 0 0 1-.191-1.065l14.034-33.763c.983-2.012-.075-4.855-2.383-6.53l-31.851-22.99c-.924-.671-1.947-1.083-2.96-1.195-1.392-.152-2.597.284-3.306 1.2l-23.598 26.935a.999.999 0 0 1-1.164.252c-10.873-4.908-21.975-8.372-32.999-10.296a.998.998 0 0 1-.742-.58L150.337 6.273c-.888-2.265-3.077-3.994-5.34-4.243a4.745 4.745 0 0 0-.866-.017l-34.117 2.472c-1.062.079-1.954.536-2.51 1.288-.605.818-.787 1.929-.513 3.129l7.382 40.451a.999.999 0 0 1-.642 1.119c-9.376 3.409-17.844 8.27-25.167 14.446-.322.271-.78.312-1.144.102L48.54 42.627c-.846-.523-1.733-.842-2.591-.936-1.548-.171-2.825.367-3.509 1.476L26.016 69.655c-1.132 1.814-.303 4.65 1.884 6.459l34.024 30.326a1 1 0 0 1 .303.997c-2.498 9.64-3.436 19.959-2.789 30.669a1 1 0 0 1-.788 1.038l-37.403 8.035c-1.045.169-1.827.666-2.314 1.448-.568.91-.669 2.101-.286 3.352l10.909 34.99c.777 2.483 3.199 4.346 6.027 4.634l40.624 2.409c.337.02.642.209.809.503 5.897 10.337 13.109 20.112 21.434 29.054a.999.999 0 0 1 .191 1.065l-14.036 33.742c-.975 2.015.083 4.86 2.383 6.529l31.833 23.009c.916.665 1.932 1.074 2.939 1.185 1.4.154 2.61-.288 3.325-1.211l23.597-26.936a.995.995 0 0 1 .751-.34zm46.385-18.537a87.11 87.11 0 0 1-9.534-.533c-46.385-5.114-88.947-46.31-94.875-91.833-2.852-21.9 3.09-41.623 16.731-55.535 13.963-14.24 34.227-20.696 57.061-18.179 46.385 5.114 88.946 46.311 94.875 91.834 2.852 21.899-3.09 41.622-16.731 55.535-11.987 12.223-28.616 18.711-47.527 18.711zM155.674 77.462c-18.375 0-34.505 6.279-46.107 18.112-13.202 13.465-18.947 32.599-16.176 53.877 5.817 44.664 47.587 85.084 93.111 90.104 22.214 2.449 41.89-3.799 55.414-17.592 13.203-13.465 18.947-32.599 16.176-53.876-5.817-44.664-47.586-85.085-93.111-90.104a84.71 84.71 0 0 0-9.307-.521z" fill="#111"/></svg></g><g transform="translate(393.59999999999997 462.0) rotate(17.09519721481992 140.4 154.2) scale(1.3043660028707202 1.3012768040236626)"><svg width="215.277" height="236.998" viewBox="0 0 215.277 236.998"><path d="M135.252 17.667c-.16-1.145-.714-2.076-1.517-2.672L115.873 1.728c.803.597 1.357 1.527 1.517 2.673l2.845 21.058 17.862 13.266z" fill="#3658C1"/><path d="M138.097 39.725a.998.998 0 0 1-.596-.197l-17.862-13.266a1.002 1.002 0 0 1-.395-.669l-2.845-21.058c-.117-.84-.516-1.554-1.122-2.004a1 1 0 1 1 1.195-1.604l17.859 13.265c1.04.772 1.718 1.957 1.911 3.336l.001.005 2.845 21.058a1 1 0 0 1-.991 1.134zm-16.928-14.817 15.619 11.6-2.527-18.704c-.119-.844-.517-1.556-1.123-2.005L118.466 4.9z" fill="#111"/><path d="m39.468 182.246-19.672 11.547c-.95.549-1.949.776-2.87.702a3.775 3.775 0 0 1-1.967-.723l17.862 13.267c.566.42 1.242.664 1.967.723.922.074 1.921-.153 2.87-.703l19.673-11.547z" fill="#3658C1"/><path d="M35.131 208.775c-.142 0-.283-.005-.424-.017a4.808 4.808 0 0 1-2.483-.917l-17.858-13.264-.003-.002a1 1 0 0 1 1.192-1.606c.407.302.909.485 1.45.529.749.06 1.541-.138 2.29-.571l19.666-11.543a.997.997 0 0 1 1.102.06l17.862 13.266a1.001 1.001 0 0 1-.09 1.665l-19.672 11.547c-.972.562-2.011.853-3.032.853zm-16.415-13.458 14.701 10.919c.406.302.908.485 1.452.529.747.056 1.539-.138 2.288-.572l18.364-10.779-16.118-11.971-19.101 11.211a6.48 6.48 0 0 1-1.586.663z" fill="#111"/><path d="m123.737 78.15 17.862 13.267c-4.345-3.227-9.618-5.233-15.457-5.702-4.067-.326-8.411.092-12.904 1.363-17.519 4.964-31.851 22.254-33.81 40.81-1.434 13.471 3.527 24.604 12.102 30.973l-17.862-13.267c-8.576-6.369-13.536-17.502-12.102-30.973 1.959-18.555 16.292-35.845 33.81-40.81 4.493-1.271 8.838-1.69 12.904-1.363 5.839.469 11.112 2.475 15.457 5.702" fill="#3658C1"/><path d="M91.529 159.861a.995.995 0 0 1-.595-.197l-.017-.012-17.845-13.254c-9.361-6.953-13.917-18.573-12.5-31.882 2.011-19.042 16.533-36.565 34.532-41.666 4.499-1.273 8.96-1.743 13.257-1.398 5.894.474 11.417 2.512 15.973 5.896l17.849 13.257.013.01a1 1 0 0 1-1.192 1.606l-.006-.004c-4.254-3.157-9.418-5.061-14.935-5.504-4.059-.323-8.283.122-12.552 1.329-17.244 4.886-31.159 21.689-33.088 39.952-1.34 12.587 2.926 23.545 11.704 30.065a1 1 0 0 1-.598 1.802zm14.079-86.519c-3.253 0-6.593.479-9.96 1.432-17.244 4.886-31.159 21.689-33.088 39.952-1.34 12.587 2.926 23.545 11.704 30.065l9.16 6.804c-4.167-6.543-5.952-14.79-4.991-23.813 2.011-19.042 16.534-36.565 34.532-41.666 4.499-1.272 8.957-1.746 13.257-1.398 2.111.169 4.175.54 6.164 1.101l-9.245-6.866c-4.255-3.16-9.421-5.064-14.941-5.508a32.286 32.286 0 0 0-2.592-.103z" fill="#111"/><path d="m77.175 198.271 17.862 13.267c-12.563-1.088-23.916-5.461-33.295-12.427L43.88 185.844c9.379 6.966 20.733 11.339 33.295 12.427" fill="#3658C1"/><path d="M95.038 212.537a.844.844 0 0 1-.087-.004c-12.451-1.078-24.14-5.442-33.805-12.62l-17.862-13.267a1 1 0 0 1 1.192-1.606l.02.015c9.363 6.948 20.692 11.173 32.765 12.219.185.016.361.083.51.193l17.862 13.267a1 1 0 0 1-.595 1.803zm-37.859-18.061 5.159 3.832c8.413 6.248 18.414 10.297 29.117 11.815l-14.649-10.881c-6.846-.621-13.459-2.236-19.627-4.766z" fill="#111"/><path d="M201.266 44.276a3.69 3.69 0 0 0-.954-1.052L182.45 29.957c.372.276.695.628.954 1.053l12.411 20.611 17.862 13.267z" fill="#3658C1"/><path d="M213.678 65.889a.998.998 0 0 1-.596-.197L195.22 52.425a.99.99 0 0 1-.26-.287l-12.412-20.612a2.696 2.696 0 0 0-.694-.766 1 1 0 0 1 1.193-1.605l17.862 13.267a4.689 4.689 0 0 1 1.213 1.338l12.412 20.612a.998.998 0 0 1-.185 1.256.99.99 0 0 1-.671.261zm-17.107-14.952 13.638 10.129-9.799-16.272a2.704 2.704 0 0 0-.694-.767l-13.218-9.818z" fill="#111"/><path d="m194.592 58.121 17.861 13.267L195.848 88l-17.861-13.266z" fill="#3658C1"/><path d="M195.848 89c-.208 0-.417-.065-.596-.197l-17.861-13.267a.998.998 0 0 1-.111-1.509l16.605-16.612a.999.999 0 0 1 1.303-.096l17.862 13.267a.998.998 0 0 1 .111 1.509l-16.605 16.612a1 1 0 0 1-.708.293zm-16.335-14.379 16.239 12.062L210.928 71.5l-16.239-12.062z" fill="#111"/><path d="m195.816 51.622 17.862 13.267c1.131 1.892.624 4.666-1.225 6.499l-17.862-13.267c1.849-1.833 2.357-4.607 1.225-6.499" fill="#3658C1"/><path d="M212.453 72.388c-.208 0-.417-.065-.596-.197l-17.862-13.267a1 1 0 0 1-.108-1.512c1.512-1.5 1.972-3.768 1.07-5.276a1 1 0 0 1 1.455-1.316l17.862 13.267a.995.995 0 0 1 .262.29c1.382 2.312.802 5.56-1.379 7.723-.193.19-.448.288-.704.288zm-16.404-14.43 16.255 12.073c1.014-1.394 1.275-3.174.606-4.468l-15.49-11.505c-.032 1.341-.504 2.72-1.371 3.9z" fill="#111"/><path d="M177.987 74.734 195.848 88c1.852 6.927 2.81 14.39 2.702 22.33-.103 7.918-1.244 15.775-3.279 23.403l-17.862-13.267c2.035-7.628 3.177-15.485 3.279-23.403.108-7.94-.85-15.403-2.701-22.329" fill="#3658C1"/><path d="M195.27 134.733a.998.998 0 0 1-.596-.197l-17.861-13.267a1 1 0 0 1-.37-1.061c2.054-7.698 3.146-15.49 3.245-23.159.104-7.626-.793-15.047-2.667-22.058a1 1 0 0 1 1.562-1.061l17.861 13.267a.997.997 0 0 1 .37.544c1.921 7.188 2.842 14.792 2.735 22.602-.102 7.833-1.216 15.79-3.313 23.647a1.002 1.002 0 0 1-.966.743zm-16.722-14.666 16.126 11.978c1.815-7.232 2.782-14.534 2.875-21.729.103-7.505-.765-14.811-2.579-21.722l-15.343-11.396c1.46 6.375 2.153 13.048 2.06 19.878-.098 7.615-1.154 15.347-3.139 22.991z" fill="#111"/><path d="m110.043 218.072-25.397 4.579a4.407 4.407 0 0 1-1.175.067 3.72 3.72 0 0 1-1.939-.716l17.862 13.267c.547.407 1.21.657 1.939.716.376.03.77.01 1.175-.068l25.397-4.578z" fill="#3658C1"/><path d="M101.668 236.997c-.139 0-.277-.005-.415-.016a4.743 4.743 0 0 1-2.457-.911l-17.861-13.266h-.001a1 1 0 0 1 1.193-1.605l.005.003a2.73 2.73 0 0 0 1.418.518c.292.024.598.006.911-.053l25.405-4.58a.993.993 0 0 1 .773.181l17.861 13.267a1 1 0 0 1-.419 1.787l-25.396 4.578a5.365 5.365 0 0 1-1.017.097zM85.293 223.55l14.696 10.916c.402.299.894.479 1.423.522.296.023.601.006.908-.053l23.133-4.17-15.66-11.632z" fill="#111"/><path d="m118.147 190.868 17.861 13.267-3.395 22.178-17.862-13.267z" fill="#3658C1"/><path d="M132.613 227.313a1 1 0 0 1-.596-.197l-17.862-13.267a1 1 0 0 1-.392-.954l3.395-22.178a.998.998 0 0 1 1.585-.651l17.862 13.267a1 1 0 0 1 .392.954l-3.395 22.178a.998.998 0 0 1-.989.848zm-16.782-14.711 16.045 11.917 3.053-19.941-16.045-11.917z" fill="#111"/><path d="m114.751 213.046 17.862 13.267c-.372 2.47-2.376 4.605-4.709 5.026l-17.862-13.267c2.333-.42 4.338-2.556 4.709-5.026" fill="#3658C1"/><path d="M127.904 232.338a1 1 0 0 1-.596-.197l-17.862-13.267a1 1 0 0 1 .419-1.787c1.915-.344 3.59-2.146 3.897-4.19a.998.998 0 0 1 1.585-.653l17.862 13.267a1 1 0 0 1 .393.952c-.437 2.898-2.758 5.363-5.521 5.861a1.173 1.173 0 0 1-.177.014zm-15.78-13.966 16.004 11.887c1.566-.455 2.91-1.866 3.373-3.526l-16.176-12.015c-.618 1.554-1.778 2.87-3.201 3.654z" fill="#111"/><path d="m156.442 161.116 17.862 13.267c-10.426 12.762-23.59 23.189-38.295 29.752l-17.862-13.267c14.705-6.564 27.869-16.99 38.295-29.752" fill="#3658C1"/><path d="M136.008 205.135a1 1 0 0 1-.596-.197l-17.862-13.267a1 1 0 0 1 .188-1.716c14.263-6.367 27.379-16.558 37.929-29.472a1 1 0 0 1 1.371-.17L174.9 173.58a1.002 1.002 0 0 1 .178 1.436c-10.747 13.155-24.116 23.54-38.662 30.033a1.02 1.02 0 0 1-.408.086zm-15.907-14.061 16.032 11.908c13.758-6.246 26.428-16.051 36.729-28.424l-16.254-12.072c-10.255 12.341-22.831 22.187-36.507 28.588z" fill="#111"/><path d="m193.822 131.232 17.862 13.267c1.679 1.247 2.065 3.742.9 5.984l-17.862-13.267c1.165-2.243.779-4.737-.9-5.984" fill="#3658C1"/><path d="M212.584 151.483a1 1 0 0 1-.596-.197l-17.862-13.266a1 1 0 0 1-.292-1.264c.927-1.785.671-3.771-.608-4.721a1 1 0 0 1 1.192-1.606l.004.003 17.857 13.264c2.072 1.539 2.573 4.587 1.192 7.248a1 1 0 0 1-.887.539zM195.96 136.89l16.163 12.004c.35-1.438-.021-2.84-1.035-3.593l-14.705-10.922c.028.82-.11 1.675-.423 2.511z" fill="#111"/><path d="m176.478 165.672 17.861 13.267-20.035-4.557-17.862-13.266z" fill="#3658C1"/><path d="M194.34 179.939a.988.988 0 0 1-.222-.025l-20.036-4.557a1.001 1.001 0 0 1-.375-.172l-17.862-13.267a1 1 0 0 1 .818-1.778l20.036 4.557c.136.031.263.089.375.172l17.862 13.267a1 1 0 0 1-.596 1.803zm-19.609-6.485 15.201 3.457L176.05 166.6l-15.201-3.457z" fill="#111"/><path d="m194.722 137.216 17.862 13.267-12.991 25.212-17.861-13.267z" fill="#3658C1"/><path d="M199.593 176.695a1 1 0 0 1-.596-.197l-17.861-13.267a1 1 0 0 1-.293-1.261l12.99-25.211a1 1 0 0 1 1.485-.345l17.862 13.266a1 1 0 0 1 .293 1.261l-12.991 25.212a1 1 0 0 1-.889.542zm-16.583-14.563 16.234 12.058 12.062-23.41-16.234-12.057z" fill="#111"/><path d="m181.732 162.428 17.862 13.267c-1.078 2.112-3.247 3.405-5.254 3.244l-17.862-13.267c2.007.161 4.176-1.132 5.254-3.244" fill="#3658C1"/><path d="M194.671 179.952c-.138 0-.275-.005-.412-.017a.995.995 0 0 1-.516-.194l-17.862-13.267a1 1 0 0 1 .676-1.799c1.643.125 3.405-.979 4.284-2.702a1 1 0 0 1 1.487-.348l17.861 13.267a.998.998 0 0 1 .294 1.257c-1.166 2.287-3.51 3.803-5.812 3.803zm-15.723-13.69 15.74 11.691c1.322-.001 2.685-.775 3.576-1.999l-16.258-12.076a7.1 7.1 0 0 1-3.058 2.384z" fill="#111"/><path d="M193.661 131.119c1.815 1.204 2.263 3.785 1.062 6.098l-12.99 25.212c-1.078 2.112-3.247 3.405-5.254 3.244l-20.036-4.556c-10.426 12.762-23.59 23.189-38.295 29.752l-3.395 22.178c-.372 2.47-2.376 4.605-4.709 5.026l-25.397 4.579a4.366 4.366 0 0 1-1.175.067c-1.795-.144-3.187-1.45-3.451-3.389l-2.845-21.058c-14.604-1.265-27.574-6.969-37.707-16.025l-19.672 11.547c-.949.549-1.949.776-2.87.702-1.2-.097-2.269-.704-2.92-1.775L1.594 172.107c-1.131-1.892-.604-4.665 1.225-6.499l16.605-16.612c-1.852-6.927-2.81-14.39-2.702-22.33.103-7.918 1.238-15.753 3.274-23.381L3.75 92.611c-1.814-1.204-2.263-3.785-1.062-6.098l12.99-25.212c1.078-2.112 3.247-3.405 5.254-3.244l20.036 4.556c10.426-12.762 23.59-23.188 38.295-29.752l3.395-22.178c.372-2.47 2.397-4.604 4.729-5.024l25.376-4.58a4.428 4.428 0 0 1 1.172-.066c1.806.145 3.185 1.464 3.454 3.388l2.845 21.058c14.619 1.288 27.574 6.969 37.727 16.027l19.652-11.548c.949-.549 1.949-.776 2.87-.702 1.201.097 2.269.704 2.921 1.775l12.411 20.612c1.131 1.892.624 4.666-1.225 6.499l-16.605 16.612c1.852 6.927 2.81 14.39 2.702 22.33-.103 7.918-1.244 15.775-3.279 23.403zm-91.627 18.799c17.519-4.965 31.851-22.254 33.81-40.81 2.157-20.28-10.2-35.266-27.564-36.661-4.067-.326-8.411.092-12.904 1.363-17.519 4.964-31.851 22.254-33.81 40.81-2.16 20.288 10.186 35.274 27.541 36.669 4.074.328 8.424-.093 12.927-1.371" fill="#B0C3FF"/><path d="M83.805 223.731c-.139 0-.277-.005-.414-.017-2.287-.183-4.04-1.892-4.362-4.251l-2.738-20.27c-13.979-1.369-26.72-6.79-36.941-15.718l-19.047 11.179c-1.108.641-2.302.93-3.457.836-1.553-.125-2.9-.946-3.695-2.252L.737 172.624c-1.374-2.299-.796-5.545 1.373-7.722l16.2-16.207c-1.821-7.021-2.692-14.434-2.588-22.043.099-7.6 1.149-15.309 3.124-22.926L3.2 93.447c-2.259-1.5-2.846-4.608-1.4-7.395l12.99-25.208c1.235-2.421 3.792-3.979 6.223-3.783a.973.973 0 0 1 .142.021l19.433 4.419c10.556-12.778 23.594-22.903 37.77-29.329l3.313-21.641c.435-2.892 2.765-5.356 5.54-5.857l25.376-4.58a5.36 5.36 0 0 1 1.43-.079c2.281.183 4.035 1.889 4.364 4.245l2.739 20.275c13.997 1.391 26.745 6.812 36.96 15.719l19.027-11.182c1.109-.641 2.3-.93 3.457-.836 1.553.124 2.9.945 3.695 2.252l12.414 20.615c1.384 2.315.804 5.563-1.377 7.726L179.1 75.035c1.821 7.023 2.692 14.436 2.588 22.042-.099 7.601-1.151 15.317-3.128 22.948l15.649 10.257.004.003c2.256 1.497 2.843 4.605 1.396 7.393l-12.989 25.208c-1.235 2.421-3.793 3.979-6.224 3.783a.973.973 0 0 1-.142-.021l-19.434-4.419c-10.555 12.777-23.593 22.903-37.77 29.329l-3.313 21.641c-.436 2.896-2.757 5.361-5.52 5.858l-25.396 4.578a5.444 5.444 0 0 1-1.016.096zm-44.337-42.485a1 1 0 0 1 .667.254c10.18 9.098 23.018 14.552 37.127 15.774a1 1 0 0 1 .905.862l2.845 21.058c.197 1.448 1.17 2.417 2.54 2.526.292.021.599.005.909-.053l25.405-4.581c1.915-.344 3.59-2.146 3.897-4.19l3.396-22.181a1 1 0 0 1 .581-.762c14.263-6.367 27.379-16.558 37.929-29.472a1 1 0 0 1 .996-.342l19.961 4.54c1.631.094 3.35-1.007 4.217-2.707l12.992-25.215c.968-1.865.664-3.884-.723-4.805l-16.249-10.65a1.001 1.001 0 0 1-.418-1.094c2.054-7.698 3.146-15.49 3.245-23.159.104-7.626-.793-15.047-2.667-22.058a1 1 0 0 1 .259-.965l16.605-16.612c1.515-1.502 1.975-3.771 1.073-5.279l-12.41-20.609c-.462-.76-1.224-1.221-2.144-1.294-.745-.058-1.54.137-2.29.571L158.47 42.348a.998.998 0 0 1-1.172-.116c-10.174-9.076-23.02-14.531-37.149-15.776a1 1 0 0 1-.903-.862l-2.845-21.058c-.202-1.445-1.177-2.415-2.543-2.524a3.516 3.516 0 0 0-.908.052L87.565 6.643c-1.927.348-3.611 2.148-3.918 4.189l-3.395 22.181c-.052.336-.27.623-.581.762-14.262 6.365-27.378 16.556-37.928 29.471-.24.293-.626.425-.996.342L20.786 59.05c-1.626-.098-3.35 1.007-4.217 2.707L3.577 86.971c-.968 1.865-.663 3.886.726 4.807l16.242 10.671a1 1 0 0 1 .417 1.094c-2.051 7.685-3.141 15.469-3.24 23.136-.104 7.628.794 15.049 2.668 22.059a.998.998 0 0 1-.259.965L3.526 166.315c-1.507 1.512-1.969 3.782-1.074 5.279l12.41 20.609c.462.759 1.224 1.22 2.144 1.294.748.059 1.54-.138 2.289-.571l19.667-11.543a1 1 0 0 1 .506-.137zm52.31-28.85c-.924 0-1.841-.037-2.752-.11-8.413-.676-15.92-4.515-21.139-10.809-5.822-7.021-8.42-16.597-7.316-26.963 2.011-19.042 16.533-36.565 34.532-41.666 4.499-1.273 8.96-1.743 13.257-1.398 8.421.676 15.936 4.518 21.16 10.817 5.821 7.02 8.42 16.589 7.319 26.946-2.011 19.042-16.533 36.565-34.532 41.666-3.555 1.01-7.085 1.517-10.529 1.517zm13.83-79.054c-3.253 0-6.593.479-9.96 1.432-17.244 4.886-31.159 21.689-33.088 39.952-1.046 9.826 1.393 18.873 6.867 25.475 4.871 5.875 11.889 9.459 19.759 10.092 4.066.327 8.296-.123 12.575-1.337 17.244-4.887 31.16-21.689 33.088-39.953 1.044-9.817-1.396-18.858-6.869-25.458-4.876-5.88-11.901-9.467-19.78-10.101a32.757 32.757 0 0 0-2.592-.102z" fill="#111"/></svg></g></svg>